<?xml version="1.0" encoding="UTF-8" standalone="no"?><svg xmlns="http://www.w3.org/2000/svg" xmlns:xlink="http://www.w3.org/1999/xlink" contentStyleType="text/css" height="860px" preserveAspectRatio="none" style="width:754px;height:860px;background:#FFFFFF;" version="1.1" viewBox="0 0 754 860" width="754px" zoomAndPan="magnify"><defs/><g><rect fill="#F1F1F1" height="60.8906" rx="5" ry="5" style="stroke:#F1F1F1;stroke-width:1.5;" width="140" x="10" y="508"/><text fill="#000000" font-family="sans-serif" font-size="14" font-weight="bold" lengthAdjust="spacing" textLength="96" x="15" y="522.9951">left_camera</text><text fill="#000000" font-family="sans-serif" font-size="14" lengthAdjust="spacing" textLength="12" x="133" y="522.9951">   </text><line style="stroke:#000000;stroke-width:1.0;" x1="128" x2="128" y1="508" y2="528.2969"/><line style="stroke:#000000;stroke-width:1.0;" x1="10" x2="150" y1="528.2969" y2="528.2969"/><text fill="#000000" font-family="sans-serif" font-size="14" font-weight="bold" lengthAdjust="spacing" textLength="107" x="15" y="543.292">right_camera</text><text fill="#000000" font-family="sans-serif" font-size="14" lengthAdjust="spacing" textLength="12" x="133" y="543.292">   </text><line style="stroke:#000000;stroke-width:1.0;" x1="128" x2="128" y1="528.2969" y2="548.5938"/><line style="stroke:#000000;stroke-width:1.0;" x1="10" x2="150" y1="548.5938" y2="548.5938"/><text fill="#000000" font-family="sans-serif" font-size="14" font-weight="bold" lengthAdjust="spacing" textLength="108" x="15" y="563.5889">depth_sensor</text><text fill="#000000" font-family="sans-serif" font-size="14" lengthAdjust="spacing" textLength="12" x="133" y="563.5889">   </text><line style="stroke:#000000;stroke-width:1.0;" x1="128" x2="128" y1="548.5938" y2="568.8906"/><rect fill="none" height="60.8906" rx="5" ry="5" style="stroke:#000000;stroke-width:1.5;" width="140" x="10" y="508"/><rect fill="#F1F1F1" height="142.0781" rx="5" ry="5" style="stroke:#F1F1F1;stroke-width:1.5;" width="189" x="187" y="106.5"/><text fill="#000000" font-family="sans-serif" font-size="14" font-weight="bold" lengthAdjust="spacing" textLength="34" x="192" y="121.4951">kind</text><text fill="#000000" font-family="sans-serif" font-size="14" lengthAdjust="spacing" textLength="25" x="346" y="121.4951">rgb</text><line style="stroke:#000000;stroke-width:1.0;" x1="341" x2="341" y1="106.5" y2="126.7969"/><line style="stroke:#000000;stroke-width:1.0;" x1="187" x2="376" y1="126.7969" y2="126.7969"/><text fill="#000000" font-family="sans-serif" font-size="14" font-weight="bold" lengthAdjust="spacing" textLength="32" x="192" y="141.792">size</text><text fill="#000000" font-family="sans-serif" font-size="14" lengthAdjust="spacing" textLength="12" x="346" y="141.792">   </text><line style="stroke:#000000;stroke-width:1.0;" x1="341" x2="341" y1="126.7969" y2="147.0938"/><line style="stroke:#000000;stroke-width:1.0;" x1="187" x2="376" y1="147.0938" y2="147.0938"/><text fill="#000000" font-family="sans-serif" font-size="14" font-weight="bold" lengthAdjust="spacing" textLength="100" x="192" y="162.0889">focal_length</text><text fill="#000000" font-family="sans-serif" font-size="14" lengthAdjust="spacing" textLength="12" x="346" y="162.0889">   </text><line style="stroke:#000000;stroke-width:1.0;" x1="341" x2="341" y1="147.0938" y2="167.3906"/><line style="stroke:#000000;stroke-width:1.0;" x1="187" x2="376" y1="167.3906" y2="167.3906"/><text fill="#000000" font-family="sans-serif" font-size="14" font-weight="bold" lengthAdjust="spacing" textLength="116" x="192" y="182.3857">optical_center</text><text fill="#000000" font-family="sans-serif" font-size="14" lengthAdjust="spacing" textLength="12" x="346" y="182.3857">   </text><line style="stroke:#000000;stroke-width:1.0;" x1="341" x2="341" y1="167.3906" y2="187.6875"/><line style="stroke:#000000;stroke-width:1.0;" x1="187" x2="376" y1="187.6875" y2="187.6875"/><text fill="#000000" font-family="sans-serif" font-size="14" font-weight="bold" lengthAdjust="spacing" textLength="103" x="192" y="202.6826">field_of_view</text><text fill="#000000" font-family="sans-serif" font-size="14" lengthAdjust="spacing" textLength="12" x="346" y="202.6826">   </text><line style="stroke:#000000;stroke-width:1.0;" x1="341" x2="341" y1="187.6875" y2="207.9844"/><line style="stroke:#000000;stroke-width:1.0;" x1="187" x2="376" y1="207.9844" y2="207.9844"/><text fill="#000000" font-family="sans-serif" font-size="14" font-weight="bold" lengthAdjust="spacing" textLength="67" x="192" y="222.9795">position</text><text fill="#000000" font-family="sans-serif" font-size="14" lengthAdjust="spacing" textLength="12" x="346" y="222.9795">   </text><line style="stroke:#000000;stroke-width:1.0;" x1="341" x2="341" y1="207.9844" y2="228.2813"/><line style="stroke:#000000;stroke-width:1.0;" x1="187" x2="376" y1="228.2813" y2="228.2813"/><text fill="#000000" font-family="sans-serif" font-size="14" font-weight="bold" lengthAdjust="spacing" textLength="144" x="192" y="243.2764">projection_matrix</text><text fill="#000000" font-family="sans-serif" font-size="14" lengthAdjust="spacing" textLength="12" x="346" y="243.2764">   </text><line style="stroke:#000000;stroke-width:1.0;" x1="341" x2="341" y1="228.2813" y2="248.5781"/><rect fill="none" height="142.0781" rx="5" ry="5" style="stroke:#000000;stroke-width:1.5;" width="189" x="187" y="106.5"/><rect fill="#F1F1F1" height="40.5938" rx="5" ry="5" style="stroke:#F1F1F1;stroke-width:1.5;" width="136" x="432" y="10"/><text fill="#000000" font-family="sans-serif" font-size="14" font-weight="bold" lengthAdjust="spacing" textLength="77" x="437" y="24.9951">width_pix</text><text fill="#000000" font-family="sans-serif" font-size="14" lengthAdjust="spacing" textLength="33" x="530" y="24.9951">1242</text><line style="stroke:#000000;stroke-width:1.0;" x1="525" x2="525" y1="10" y2="30.2969"/><line style="stroke:#000000;stroke-width:1.0;" x1="432" x2="568" y1="30.2969" y2="30.2969"/><text fill="#000000" font-family="sans-serif" font-size="14" font-weight="bold" lengthAdjust="spacing" textLength="83" x="437" y="45.292">height_pix</text><text fill="#000000" font-family="sans-serif" font-size="14" lengthAdjust="spacing" textLength="27" x="530" y="45.292">375</text><line style="stroke:#000000;stroke-width:1.0;" x1="525" x2="525" y1="30.2969" y2="50.5938"/><rect fill="none" height="40.5938" rx="5" ry="5" style="stroke:#000000;stroke-width:1.5;" width="136" x="432" y="10"/><rect fill="#F1F1F1" height="40.5938" rx="5" ry="5" style="stroke:#F1F1F1;stroke-width:1.5;" width="170" x="415" y="69"/><text fill="#000000" font-family="sans-serif" font-size="14" font-weight="bold" lengthAdjust="spacing" textLength="47" x="420" y="83.9951">fx_pix</text><text fill="#000000" font-family="sans-serif" font-size="14" lengthAdjust="spacing" textLength="103" x="477" y="83.9951">9.895267e+02</text><line style="stroke:#000000;stroke-width:1.0;" x1="472" x2="472" y1="69" y2="89.2969"/><line style="stroke:#000000;stroke-width:1.0;" x1="415" x2="585" y1="89.2969" y2="89.2969"/><text fill="#000000" font-family="sans-serif" font-size="14" font-weight="bold" lengthAdjust="spacing" textLength="47" x="420" y="104.292">fy_pix</text><text fill="#000000" font-family="sans-serif" font-size="14" lengthAdjust="spacing" textLength="102" x="477" y="104.292">9.878386e+02</text><line style="stroke:#000000;stroke-width:1.0;" x1="472" x2="472" y1="89.2969" y2="109.5938"/><rect fill="none" height="40.5938" rx="5" ry="5" style="stroke:#000000;stroke-width:1.5;" width="170" x="415" y="69"/><rect fill="#F1F1F1" height="40.5938" rx="5" ry="5" style="stroke:#F1F1F1;stroke-width:1.5;" width="173" x="413.5" y="128"/><text fill="#000000" font-family="sans-serif" font-size="14" font-weight="bold" lengthAdjust="spacing" textLength="49" x="418.5" y="142.9951">cx_pix</text><text fill="#000000" font-family="sans-serif" font-size="14" lengthAdjust="spacing" textLength="104" x="477.5" y="142.9951">7.020000e+02</text><line style="stroke:#000000;stroke-width:1.0;" x1="472.5" x2="472.5" y1="128" y2="148.2969"/><line style="stroke:#000000;stroke-width:1.0;" x1="413.5" x2="586.5" y1="148.2969" y2="148.2969"/><text fill="#000000" font-family="sans-serif" font-size="14" font-weight="bold" lengthAdjust="spacing" textLength="49" x="418.5" y="163.292">cy_pix</text><text fill="#000000" font-family="sans-serif" font-size="14" lengthAdjust="spacing" textLength="103" x="477.5" y="163.292">2.455590e+02</text><line style="stroke:#000000;stroke-width:1.0;" x1="472.5" x2="472.5" y1="148.2969" y2="168.5938"/><rect fill="none" height="40.5938" rx="5" ry="5" style="stroke:#000000;stroke-width:1.5;" width="173" x="413.5" y="128"/><rect fill="#F1F1F1" height="20.2969" rx="5" ry="5" style="stroke:#F1F1F1;stroke-width:1.5;" width="109" x="445.5" y="187.5"/><text fill="#000000" font-family="sans-serif" font-size="14" font-weight="bold" lengthAdjust="spacing" textLength="71" x="450.5" y="202.4951">fovx_deg</text><text fill="#000000" font-family="sans-serif" font-size="14" lengthAdjust="spacing" textLength="18" x="531.5" y="202.4951">90</text><line style="stroke:#000000;stroke-width:1.0;" x1="526.5" x2="526.5" y1="187.5" y2="207.7969"/><rect fill="none" height="20.2969" rx="5" ry="5" style="stroke:#000000;stroke-width:1.5;" width="109" x="445.5" y="187.5"/><rect fill="#F1F1F1" height="60.8906" rx="5" ry="5" style="stroke:#F1F1F1;stroke-width:1.5;" width="83" x="458.5" y="226"/><text fill="#000000" font-family="sans-serif" font-size="14" font-weight="bold" lengthAdjust="spacing" textLength="31" x="463.5" y="240.9951">x_m</text><text fill="#000000" font-family="sans-serif" font-size="14" lengthAdjust="spacing" textLength="32" x="504.5" y="240.9951">0.06</text><line style="stroke:#000000;stroke-width:1.0;" x1="499.5" x2="499.5" y1="226" y2="246.2969"/><line style="stroke:#000000;stroke-width:1.0;" x1="458.5" x2="541.5" y1="246.2969" y2="246.2969"/><text fill="#000000" font-family="sans-serif" font-size="14" font-weight="bold" lengthAdjust="spacing" textLength="31" x="463.5" y="261.292">y_m</text><text fill="#000000" font-family="sans-serif" font-size="14" lengthAdjust="spacing" textLength="32" x="504.5" y="261.292">1.65</text><line style="stroke:#000000;stroke-width:1.0;" x1="499.5" x2="499.5" y1="246.2969" y2="266.5938"/><line style="stroke:#000000;stroke-width:1.0;" x1="458.5" x2="541.5" y1="266.5938" y2="266.5938"/><text fill="#000000" font-family="sans-serif" font-size="14" font-weight="bold" lengthAdjust="spacing" textLength="31" x="463.5" y="281.5889">z_m</text><text fill="#000000" font-family="sans-serif" font-size="14" lengthAdjust="spacing" textLength="31" x="504.5" y="281.5889">0.27</text><line style="stroke:#000000;stroke-width:1.0;" x1="499.5" x2="499.5" y1="266.5938" y2="286.8906"/><rect fill="none" height="60.8906" rx="5" ry="5" style="stroke:#000000;stroke-width:1.5;" width="83" x="458.5" y="226"/><rect fill="#F1F1F1" height="60.8906" rx="5" ry="5" style="stroke:#F1F1F1;stroke-width:1.5;" width="22" x="488" y="305"/><text fill="#000000" font-family="sans-serif" font-size="14" lengthAdjust="spacing" textLength="12" x="493" y="319.9951">   </text><line style="stroke:#000000;stroke-width:1.0;" x1="488" x2="510" y1="325.2969" y2="325.2969"/><text fill="#000000" font-family="sans-serif" font-size="14" lengthAdjust="spacing" textLength="12" x="493" y="340.292">   </text><line style="stroke:#000000;stroke-width:1.0;" x1="488" x2="510" y1="345.5938" y2="345.5938"/><text fill="#000000" font-family="sans-serif" font-size="14" lengthAdjust="spacing" textLength="12" x="493" y="360.5889">   </text><rect fill="none" height="60.8906" rx="5" ry="5" style="stroke:#000000;stroke-width:1.5;" width="22" x="488" y="305"/><rect fill="#F1F1F1" height="81.1875" rx="5" ry="5" style="stroke:#F1F1F1;stroke-width:1.5;" width="116" x="625" y="195"/><text fill="#000000" font-family="sans-serif" font-size="14" lengthAdjust="spacing" textLength="104" x="630" y="209.9951">7.215377e+02</text><line style="stroke:#000000;stroke-width:1.0;" x1="625" x2="741" y1="215.2969" y2="215.2969"/><text fill="#000000" font-family="sans-serif" font-size="14" lengthAdjust="spacing" textLength="106" x="630" y="230.292">0.000000e+00</text><line style="stroke:#000000;stroke-width:1.0;" x1="625" x2="741" y1="235.5938" y2="235.5938"/><text fill="#000000" font-family="sans-serif" font-size="14" lengthAdjust="spacing" textLength="105" x="630" y="250.5889">6.095593e+02</text><line style="stroke:#000000;stroke-width:1.0;" x1="625" x2="741" y1="255.8906" y2="255.8906"/><text fill="#000000" font-family="sans-serif" font-size="14" lengthAdjust="spacing" textLength="101" x="630" y="270.8857">4.485728e+01</text><rect fill="none" height="81.1875" rx="5" ry="5" style="stroke:#000000;stroke-width:1.5;" width="116" x="625" y="195"/><rect fill="#F1F1F1" height="81.1875" rx="5" ry="5" style="stroke:#F1F1F1;stroke-width:1.5;" width="116" x="625" y="294"/><text fill="#000000" font-family="sans-serif" font-size="14" lengthAdjust="spacing" textLength="106" x="630" y="308.9951">0.000000e+00</text><line style="stroke:#000000;stroke-width:1.0;" x1="625" x2="741" y1="314.2969" y2="314.2969"/><text fill="#000000" font-family="sans-serif" font-size="14" lengthAdjust="spacing" textLength="104" x="630" y="329.292">7.215377e+02</text><line style="stroke:#000000;stroke-width:1.0;" x1="625" x2="741" y1="334.5938" y2="334.5938"/><text fill="#000000" font-family="sans-serif" font-size="14" lengthAdjust="spacing" textLength="102" x="630" y="349.5889">1.728540e+02</text><line style="stroke:#000000;stroke-width:1.0;" x1="625" x2="741" y1="354.8906" y2="354.8906"/><text fill="#000000" font-family="sans-serif" font-size="14" lengthAdjust="spacing" textLength="100" x="630" y="369.8857">2.163791e-01</text><rect fill="none" height="81.1875" rx="5" ry="5" style="stroke:#000000;stroke-width:1.5;" width="116" x="625" y="294"/><rect fill="#F1F1F1" height="81.1875" rx="5" ry="5" style="stroke:#F1F1F1;stroke-width:1.5;" width="116" x="625" y="393"/><text fill="#000000" font-family="sans-serif" font-size="14" lengthAdjust="spacing" textLength="106" x="630" y="407.9951">0.000000e+00</text><line style="stroke:#000000;stroke-width:1.0;" x1="625" x2="741" y1="413.2969" y2="413.2969"/><text fill="#000000" font-family="sans-serif" font-size="14" lengthAdjust="spacing" textLength="106" x="630" y="428.292">0.000000e+00</text><line style="stroke:#000000;stroke-width:1.0;" x1="625" x2="741" y1="433.5938" y2="433.5938"/><text fill="#000000" font-family="sans-serif" font-size="14" lengthAdjust="spacing" textLength="106" x="630" y="448.5889">1.000000e+00</text><line style="stroke:#000000;stroke-width:1.0;" x1="625" x2="741" y1="453.8906" y2="453.8906"/><text fill="#000000" font-family="sans-serif" font-size="14" lengthAdjust="spacing" textLength="96" x="630" y="468.8857">2.745884e-03</text><rect fill="none" height="81.1875" rx="5" ry="5" style="stroke:#000000;stroke-width:1.5;" width="116" x="625" y="393"/><rect fill="#F1F1F1" height="142.0781" rx="5" ry="5" style="stroke:#F1F1F1;stroke-width:1.5;" width="189" x="187" y="466.5"/><text fill="#000000" font-family="sans-serif" font-size="14" font-weight="bold" lengthAdjust="spacing" textLength="34" x="192" y="481.4951">kind</text><text fill="#000000" font-family="sans-serif" font-size="14" lengthAdjust="spacing" textLength="25" x="346" y="481.4951">rgb</text><line style="stroke:#000000;stroke-width:1.0;" x1="341" x2="341" y1="466.5" y2="486.7969"/><line style="stroke:#000000;stroke-width:1.0;" x1="187" x2="376" y1="486.7969" y2="486.7969"/><text fill="#000000" font-family="sans-serif" font-size="14" font-weight="bold" lengthAdjust="spacing" textLength="32" x="192" y="501.792">size</text><text fill="#000000" font-family="sans-serif" font-size="14" lengthAdjust="spacing" textLength="12" x="346" y="501.792">   </text><line style="stroke:#000000;stroke-width:1.0;" x1="341" x2="341" y1="486.7969" y2="507.0938"/><line style="stroke:#000000;stroke-width:1.0;" x1="187" x2="376" y1="507.0938" y2="507.0938"/><text fill="#000000" font-family="sans-serif" font-size="14" font-weight="bold" lengthAdjust="spacing" textLength="100" x="192" y="522.0889">focal_length</text><text fill="#000000" font-family="sans-serif" font-size="14" lengthAdjust="spacing" textLength="12" x="346" y="522.0889">   </text><line style="stroke:#000000;stroke-width:1.0;" x1="341" x2="341" y1="507.0938" y2="527.3906"/><line style="stroke:#000000;stroke-width:1.0;" x1="187" x2="376" y1="527.3906" y2="527.3906"/><text fill="#000000" font-family="sans-serif" font-size="14" font-weight="bold" lengthAdjust="spacing" textLength="116" x="192" y="542.3857">optical_center</text><text fill="#000000" font-family="sans-serif" font-size="14" lengthAdjust="spacing" textLength="12" x="346" y="542.3857">   </text><line style="stroke:#000000;stroke-width:1.0;" x1="341" x2="341" y1="527.3906" y2="547.6875"/><line style="stroke:#000000;stroke-width:1.0;" x1="187" x2="376" y1="547.6875" y2="547.6875"/><text fill="#000000" font-family="sans-serif" font-size="14" font-weight="bold" lengthAdjust="spacing" textLength="103" x="192" y="562.6826">field_of_view</text><text fill="#000000" font-family="sans-serif" font-size="14" lengthAdjust="spacing" textLength="12" x="346" y="562.6826">   </text><line style="stroke:#000000;stroke-width:1.0;" x1="341" x2="341" y1="547.6875" y2="567.9844"/><line style="stroke:#000000;stroke-width:1.0;" x1="187" x2="376" y1="567.9844" y2="567.9844"/><text fill="#000000" font-family="sans-serif" font-size="14" font-weight="bold" lengthAdjust="spacing" textLength="67" x="192" y="582.9795">position</text><text fill="#000000" font-family="sans-serif" font-size="14" lengthAdjust="spacing" textLength="12" x="346" y="582.9795">   </text><line style="stroke:#000000;stroke-width:1.0;" x1="341" x2="341" y1="567.9844" y2="588.2813"/><line style="stroke:#000000;stroke-width:1.0;" x1="187" x2="376" y1="588.2813" y2="588.2813"/><text fill="#000000" font-family="sans-serif" font-size="14" font-weight="bold" lengthAdjust="spacing" textLength="144" x="192" y="603.2764">projection_matrix</text><text fill="#000000" font-family="sans-serif" font-size="14" lengthAdjust="spacing" textLength="12" x="346" y="603.2764">   </text><line style="stroke:#000000;stroke-width:1.0;" x1="341" x2="341" y1="588.2813" y2="608.5781"/><rect fill="none" height="142.0781" rx="5" ry="5" style="stroke:#000000;stroke-width:1.5;" width="189" x="187" y="466.5"/><rect fill="#F1F1F1" height="40.5938" rx="5" ry="5" style="stroke:#F1F1F1;stroke-width:1.5;" width="136" x="432" y="384"/><text fill="#000000" font-family="sans-serif" font-size="14" font-weight="bold" lengthAdjust="spacing" textLength="77" x="437" y="398.9951">width_pix</text><text fill="#000000" font-family="sans-serif" font-size="14" lengthAdjust="spacing" textLength="33" x="530" y="398.9951">1242</text><line style="stroke:#000000;stroke-width:1.0;" x1="525" x2="525" y1="384" y2="404.2969"/><line style="stroke:#000000;stroke-width:1.0;" x1="432" x2="568" y1="404.2969" y2="404.2969"/><text fill="#000000" font-family="sans-serif" font-size="14" font-weight="bold" lengthAdjust="spacing" textLength="83" x="437" y="419.292">height_pix</text><text fill="#000000" font-family="sans-serif" font-size="14" lengthAdjust="spacing" textLength="27" x="530" y="419.292">375</text><line style="stroke:#000000;stroke-width:1.0;" x1="525" x2="525" y1="404.2969" y2="424.5938"/><rect fill="none" height="40.5938" rx="5" ry="5" style="stroke:#000000;stroke-width:1.5;" width="136" x="432" y="384"/><rect fill="#F1F1F1" height="40.5938" rx="5" ry="5" style="stroke:#F1F1F1;stroke-width:1.5;" width="172" x="414" y="443"/><text fill="#000000" font-family="sans-serif" font-size="14" font-weight="bold" lengthAdjust="spacing" textLength="47" x="419" y="457.9951">fx_pix</text><text fill="#000000" font-family="sans-serif" font-size="14" lengthAdjust="spacing" textLength="105" x="476" y="457.9951">9.037596e+02</text><line style="stroke:#000000;stroke-width:1.0;" x1="471" x2="471" y1="443" y2="463.2969"/><line style="stroke:#000000;stroke-width:1.0;" x1="414" x2="586" y1="463.2969" y2="463.2969"/><text fill="#000000" font-family="sans-serif" font-size="14" font-weight="bold" lengthAdjust="spacing" textLength="47" x="419" y="478.292">fy_pix</text><text fill="#000000" font-family="sans-serif" font-size="14" lengthAdjust="spacing" textLength="105" x="476" y="478.292">9.019653e+02</text><line style="stroke:#000000;stroke-width:1.0;" x1="471" x2="471" y1="463.2969" y2="483.5938"/><rect fill="none" height="40.5938" rx="5" ry="5" style="stroke:#000000;stroke-width:1.5;" width="172" x="414" y="443"/><rect fill="#F1F1F1" height="40.5938" rx="5" ry="5" style="stroke:#F1F1F1;stroke-width:1.5;" width="174" x="413" y="502"/><text fill="#000000" font-family="sans-serif" font-size="14" font-weight="bold" lengthAdjust="spacing" textLength="49" x="418" y="516.9951">cx_pix</text><text fill="#000000" font-family="sans-serif" font-size="14" lengthAdjust="spacing" textLength="105" x="477" y="516.9951">6.957519e+02</text><line style="stroke:#000000;stroke-width:1.0;" x1="472" x2="472" y1="502" y2="522.2969"/><line style="stroke:#000000;stroke-width:1.0;" x1="413" x2="587" y1="522.2969" y2="522.2969"/><text fill="#000000" font-family="sans-serif" font-size="14" font-weight="bold" lengthAdjust="spacing" textLength="49" x="418" y="537.292">cy_pix</text><text fill="#000000" font-family="sans-serif" font-size="14" lengthAdjust="spacing" textLength="101" x="477" y="537.292">2.242509e+02</text><line style="stroke:#000000;stroke-width:1.0;" x1="472" x2="472" y1="522.2969" y2="542.5938"/><rect fill="none" height="40.5938" rx="5" ry="5" style="stroke:#000000;stroke-width:1.5;" width="174" x="413" y="502"/><rect fill="#F1F1F1" height="20.2969" rx="5" ry="5" style="stroke:#F1F1F1;stroke-width:1.5;" width="109" x="445.5" y="561.5"/><text fill="#000000" font-family="sans-serif" font-size="14" font-weight="bold" lengthAdjust="spacing" textLength="71" x="450.5" y="576.4951">fovx_deg</text><text fill="#000000" font-family="sans-serif" font-size="14" lengthAdjust="spacing" textLength="18" x="531.5" y="576.4951">90</text><line style="stroke:#000000;stroke-width:1.0;" x1="526.5" x2="526.5" y1="561.5" y2="581.7969"/><rect fill="none" height="20.2969" rx="5" ry="5" style="stroke:#000000;stroke-width:1.5;" width="109" x="445.5" y="561.5"/><rect fill="#F1F1F1" height="60.8906" rx="5" ry="5" style="stroke:#F1F1F1;stroke-width:1.5;" width="88" x="456" y="600"/><text fill="#000000" font-family="sans-serif" font-size="14" font-weight="bold" lengthAdjust="spacing" textLength="31" x="461" y="614.9951">x_m</text><text fill="#000000" font-family="sans-serif" font-size="14" lengthAdjust="spacing" textLength="37" x="502" y="614.9951">-0.54</text><line style="stroke:#000000;stroke-width:1.0;" x1="497" x2="497" y1="600" y2="620.2969"/><line style="stroke:#000000;stroke-width:1.0;" x1="456" x2="544" y1="620.2969" y2="620.2969"/><text fill="#000000" font-family="sans-serif" font-size="14" font-weight="bold" lengthAdjust="spacing" textLength="31" x="461" y="635.292">y_m</text><text fill="#000000" font-family="sans-serif" font-size="14" lengthAdjust="spacing" textLength="32" x="502" y="635.292">1.65</text><line style="stroke:#000000;stroke-width:1.0;" x1="497" x2="497" y1="620.2969" y2="640.5938"/><line style="stroke:#000000;stroke-width:1.0;" x1="456" x2="544" y1="640.5938" y2="640.5938"/><text fill="#000000" font-family="sans-serif" font-size="14" font-weight="bold" lengthAdjust="spacing" textLength="31" x="461" y="655.5889">z_m</text><text fill="#000000" font-family="sans-serif" font-size="14" lengthAdjust="spacing" textLength="31" x="502" y="655.5889">0.27</text><line style="stroke:#000000;stroke-width:1.0;" x1="497" x2="497" y1="640.5938" y2="660.8906"/><rect fill="none" height="60.8906" rx="5" ry="5" style="stroke:#000000;stroke-width:1.5;" width="88" x="456" y="600"/><rect fill="#F1F1F1" height="60.8906" rx="5" ry="5" style="stroke:#F1F1F1;stroke-width:1.5;" width="22" x="488" y="679"/><text fill="#000000" font-family="sans-serif" font-size="14" lengthAdjust="spacing" textLength="12" x="493" y="693.9951">   </text><line style="stroke:#000000;stroke-width:1.0;" x1="488" x2="510" y1="699.2969" y2="699.2969"/><text fill="#000000" font-family="sans-serif" font-size="14" lengthAdjust="spacing" textLength="12" x="493" y="714.292">   </text><line style="stroke:#000000;stroke-width:1.0;" x1="488" x2="510" y1="719.5938" y2="719.5938"/><text fill="#000000" font-family="sans-serif" font-size="14" lengthAdjust="spacing" textLength="12" x="493" y="734.5889">   </text><rect fill="none" height="60.8906" rx="5" ry="5" style="stroke:#000000;stroke-width:1.5;" width="22" x="488" y="679"/><rect fill="#F1F1F1" height="81.1875" rx="5" ry="5" style="stroke:#F1F1F1;stroke-width:1.5;" width="118" x="624" y="569"/><text fill="#000000" font-family="sans-serif" font-size="14" lengthAdjust="spacing" textLength="104" x="629" y="583.9951">7.215377e+02</text><line style="stroke:#000000;stroke-width:1.0;" x1="624" x2="742" y1="589.2969" y2="589.2969"/><text fill="#000000" font-family="sans-serif" font-size="14" lengthAdjust="spacing" textLength="106" x="629" y="604.292">0.000000e+00</text><line style="stroke:#000000;stroke-width:1.0;" x1="624" x2="742" y1="609.5938" y2="609.5938"/><text fill="#000000" font-family="sans-serif" font-size="14" lengthAdjust="spacing" textLength="105" x="629" y="624.5889">6.095593e+02</text><line style="stroke:#000000;stroke-width:1.0;" x1="624" x2="742" y1="629.8906" y2="629.8906"/><text fill="#000000" font-family="sans-serif" font-size="14" lengthAdjust="spacing" textLength="108" x="629" y="644.8857">-3.395242e+02</text><rect fill="none" height="81.1875" rx="5" ry="5" style="stroke:#000000;stroke-width:1.5;" width="118" x="624" y="569"/><rect fill="#F1F1F1" height="81.1875" rx="5" ry="5" style="stroke:#F1F1F1;stroke-width:1.5;" width="116" x="625" y="668"/><text fill="#000000" font-family="sans-serif" font-size="14" lengthAdjust="spacing" textLength="106" x="630" y="682.9951">0.000000e+00</text><line style="stroke:#000000;stroke-width:1.0;" x1="625" x2="741" y1="688.2969" y2="688.2969"/><text fill="#000000" font-family="sans-serif" font-size="14" lengthAdjust="spacing" textLength="104" x="630" y="703.292">7.215377e+02</text><line style="stroke:#000000;stroke-width:1.0;" x1="625" x2="741" y1="708.5938" y2="708.5938"/><text fill="#000000" font-family="sans-serif" font-size="14" lengthAdjust="spacing" textLength="102" x="630" y="723.5889">1.728540e+02</text><line style="stroke:#000000;stroke-width:1.0;" x1="625" x2="741" y1="728.8906" y2="728.8906"/><text fill="#000000" font-family="sans-serif" font-size="14" lengthAdjust="spacing" textLength="105" x="630" y="743.8857">2.199936e+00</text><rect fill="none" height="81.1875" rx="5" ry="5" style="stroke:#000000;stroke-width:1.5;" width="116" x="625" y="668"/><rect fill="#F1F1F1" height="81.1875" rx="5" ry="5" style="stroke:#F1F1F1;stroke-width:1.5;" width="116" x="625" y="767"/><text fill="#000000" font-family="sans-serif" font-size="14" lengthAdjust="spacing" textLength="106" x="630" y="781.9951">0.000000e+00</text><line style="stroke:#000000;stroke-width:1.0;" x1="625" x2="741" y1="787.2969" y2="787.2969"/><text fill="#000000" font-family="sans-serif" font-size="14" lengthAdjust="spacing" textLength="106" x="630" y="802.292">0.000000e+00</text><line style="stroke:#000000;stroke-width:1.0;" x1="625" x2="741" y1="807.5938" y2="807.5938"/><text fill="#000000" font-family="sans-serif" font-size="14" lengthAdjust="spacing" textLength="106" x="630" y="822.5889">1.000000e+00</text><line style="stroke:#000000;stroke-width:1.0;" x1="625" x2="741" y1="827.8906" y2="827.8906"/><text fill="#000000" font-family="sans-serif" font-size="14" lengthAdjust="spacing" textLength="99" x="630" y="842.8857">2.729905e-03</text><rect fill="none" height="81.1875" rx="5" ry="5" style="stroke:#000000;stroke-width:1.5;" width="116" x="625" y="767"/><rect fill="#F1F1F1" height="40.5938" rx="5" ry="5" style="stroke:#F1F1F1;stroke-width:1.5;" width="118" x="222.5" y="699"/><text fill="#000000" font-family="sans-serif" font-size="14" font-weight="bold" lengthAdjust="spacing" textLength="34" x="227.5" y="713.9951">kind</text><text fill="#000000" font-family="sans-serif" font-size="14" lengthAdjust="spacing" textLength="31" x="304.5" y="713.9951">lidar</text><line style="stroke:#000000;stroke-width:1.0;" x1="299.5" x2="299.5" y1="699" y2="719.2969"/><line style="stroke:#000000;stroke-width:1.0;" x1="222.5" x2="340.5" y1="719.2969" y2="719.2969"/><text fill="#000000" font-family="sans-serif" font-size="14" font-weight="bold" lengthAdjust="spacing" textLength="67" x="227.5" y="734.292">position</text><text fill="#000000" font-family="sans-serif" font-size="14" lengthAdjust="spacing" textLength="12" x="304.5" y="734.292">   </text><line style="stroke:#000000;stroke-width:1.0;" x1="299.5" x2="299.5" y1="719.2969" y2="739.5938"/><rect fill="none" height="40.5938" rx="5" ry="5" style="stroke:#000000;stroke-width:1.5;" width="118" x="222.5" y="699"/><rect fill="#F1F1F1" height="60.8906" rx="5" ry="5" style="stroke:#F1F1F1;stroke-width:1.5;" width="83" x="458.5" y="758"/><text fill="#000000" font-family="sans-serif" font-size="14" font-weight="bold" lengthAdjust="spacing" textLength="31" x="463.5" y="772.9951">x_m</text><text fill="#000000" font-family="sans-serif" font-size="14" lengthAdjust="spacing" textLength="23" x="504.5" y="772.9951">0.0</text><line style="stroke:#000000;stroke-width:1.0;" x1="499.5" x2="499.5" y1="758" y2="778.2969"/><line style="stroke:#000000;stroke-width:1.0;" x1="458.5" x2="541.5" y1="778.2969" y2="778.2969"/><text fill="#000000" font-family="sans-serif" font-size="14" font-weight="bold" lengthAdjust="spacing" textLength="31" x="463.5" y="793.292">y_m</text><text fill="#000000" font-family="sans-serif" font-size="14" lengthAdjust="spacing" textLength="32" x="504.5" y="793.292">1.73</text><line style="stroke:#000000;stroke-width:1.0;" x1="499.5" x2="499.5" y1="778.2969" y2="798.5938"/><line style="stroke:#000000;stroke-width:1.0;" x1="458.5" x2="541.5" y1="798.5938" y2="798.5938"/><text fill="#000000" font-family="sans-serif" font-size="14" font-weight="bold" lengthAdjust="spacing" textLength="31" x="463.5" y="813.5889">z_m</text><text fill="#000000" font-family="sans-serif" font-size="14" lengthAdjust="spacing" textLength="23" x="504.5" y="813.5889">0.0</text><line style="stroke:#000000;stroke-width:1.0;" x1="499.5" x2="499.5" y1="798.5938" y2="818.8906"/><rect fill="none" height="60.8906" rx="5" ry="5" style="stroke:#000000;stroke-width:1.5;" width="83" x="458.5" y="758"/><path d="M364,136.5 L377,136.5 C414.7778,136.5 384.8105,84.6498 413,59.5 C416.8116,56.0994 421.0356,53.0954 425.5076,50.442 " fill="none" style="stroke:#000000;stroke-width:1.0;stroke-dasharray:3.0,3.0;"/><path d="M426.9644,53.1261 L427.5207,49.3494 L424.0508,47.7579 L432.218,46.8 L426.9644,53.1261 " fill="#000000" style="stroke:#000000;stroke-width:1.0;"/><ellipse cx="364" cy="136.5" fill="#000000" rx="3" ry="3" style="stroke:#000000;stroke-width:1.0;"/><path d="M364,156.5 L377,156.5 C400.2644,156.5 393.388,131.0141 413,118.5 C415.7038,116.7747 418.5211,115.141 421.4171,113.595 " fill="none" style="stroke:#000000;stroke-width:1.0;stroke-dasharray:3.0,3.0;"/><path d="M422.7969,116.3484 L423.4821,112.5601 L420.0372,110.8416 L428.3005,110.1454 L422.7969,116.3484 " fill="#000000" style="stroke:#000000;stroke-width:1.0;"/><ellipse cx="364" cy="156.5" fill="#000000" rx="3" ry="3" style="stroke:#000000;stroke-width:1.0;"/><path d="M364,176.5 L377,176.5 C393.3644,176.5 410.6564,174.096 426.9273,170.6968 " fill="none" style="stroke:#000000;stroke-width:1.0;stroke-dasharray:3.0,3.0;"/><path d="M427.578,173.6556 L429.1464,170.2088 L426.2766,167.738 L434.3243,169.07 L427.578,173.6556 " fill="#000000" style="stroke:#000000;stroke-width:1.0;"/><ellipse cx="364" cy="176.5" fill="#000000" rx="3" ry="3" style="stroke:#000000;stroke-width:1.0;"/><path d="M364,197.5 L377,197.5 C396.9016,197.5 418.6219,197.5 438.1721,197.5 " fill="none" style="stroke:#000000;stroke-width:1.0;stroke-dasharray:3.0,3.0;"/><path d="M438.1721,200.5646 L440.4705,197.5 L438.1721,194.4354 L445.8335,197.5 L438.1721,200.5646 " fill="#000000" style="stroke:#000000;stroke-width:1.0;"/><ellipse cx="364" cy="197.5" fill="#000000" rx="3" ry="3" style="stroke:#000000;stroke-width:1.0;"/><path d="M364,217.5 L377,217.5 C402.4765,217.5 429.5885,225.2537 451.8124,233.8466 " fill="none" style="stroke:#000000;stroke-width:1.0;stroke-dasharray:3.0,3.0;"/><path d="M450.6881,236.6608 L453.923,234.6898 L452.9366,231.0324 L458.8479,236.6572 L450.6881,236.6608 " fill="#000000" style="stroke:#000000;stroke-width:1.0;"/><ellipse cx="364" cy="217.5" fill="#000000" rx="3" ry="3" style="stroke:#000000;stroke-width:1.0;"/><path d="M500.5,314.5 L513.5,314.5 C551.2886,314.5 589.7367,298.09 620.3936,280.2282 " fill="none" style="stroke:#000000;stroke-width:1.0;stroke-dasharray:3.0,3.0;"/><path d="M622.0221,282.9556 L622.4392,279.0069 L618.7652,277.5008 L627.2121,276.1571 L622.0221,282.9556 " fill="#000000" style="stroke:#000000;stroke-width:1.0;"/><ellipse cx="500.5" cy="314.5" fill="#000000" rx="3" ry="3" style="stroke:#000000;stroke-width:1.0;"/><path d="M500.5,334.5 L513.5,334.5 C547.851,334.5 586.1296,334.5 617.5585,334.5 " fill="none" style="stroke:#000000;stroke-width:1.0;stroke-dasharray:3.0,3.0;"/><path d="M617.5585,337.6345 L619.9094,334.5 L617.5585,331.3655 L625.3948,334.5 L617.5585,337.6345 " fill="#000000" style="stroke:#000000;stroke-width:1.0;"/><ellipse cx="500.5" cy="334.5" fill="#000000" rx="3" ry="3" style="stroke:#000000;stroke-width:1.0;"/><path d="M500.5,355.5 L513.5,355.5 C550.9028,355.5 589.0312,371.4451 619.5831,388.9167 " fill="none" style="stroke:#000000;stroke-width:1.0;stroke-dasharray:3.0,3.0;"/><path d="M617.9894,391.636 L621.6226,390.1119 L621.1767,386.1974 L626.3814,392.9008 L617.9894,391.636 " fill="#000000" style="stroke:#000000;stroke-width:1.0;"/><ellipse cx="500.5" cy="355.5" fill="#000000" rx="3" ry="3" style="stroke:#000000;stroke-width:1.0;"/><path d="M364,238.5 L377,238.5 C406.9629,238.5 390.4798,275.7359 413,295.5 C433.0211,313.0708 462.0721,324.3618 480.8764,330.3221 " fill="none" style="stroke:#000000;stroke-width:1.0;stroke-dasharray:3.0,3.0;"/><path d="M479.984,333.2722 L483.089,330.9913 L481.7687,327.3719 L488.2518,332.5529 L479.984,333.2722 " fill="#000000" style="stroke:#000000;stroke-width:1.0;"/><ellipse cx="364" cy="238.5" fill="#000000" rx="3" ry="3" style="stroke:#000000;stroke-width:1.0;"/><path d="M139.5,519.5 L139.5,506.5 C139.5,414.6783 186.5879,319.3111 226.4367,255.045 " fill="none" style="stroke:#000000;stroke-width:1.0;stroke-dasharray:3.0,3.0;"/><path d="M229.0407,256.6762 L227.6601,253.0921 L223.8327,253.4139 L230.5145,248.5352 L229.0407,256.6762 " fill="#000000" style="stroke:#000000;stroke-width:1.0;"/><ellipse cx="139.5" cy="519.5" fill="#000000" rx="3" ry="3" style="stroke:#000000;stroke-width:1.0;"/><path d="M364,496.5 L377,496.5 C409.249,496.5 388.0782,453.9671 413,433.5 C416.8652,430.3257 421.093,427.4932 425.5352,424.9666 " fill="none" style="stroke:#000000;stroke-width:1.0;stroke-dasharray:3.0,3.0;"/><path d="M426.93,427.6243 L427.5285,423.9204 L424.1403,422.3089 L432.1795,421.4794 L426.93,427.6243 " fill="#000000" style="stroke:#000000;stroke-width:1.0;"/><ellipse cx="364" cy="496.5" fill="#000000" rx="3" ry="3" style="stroke:#000000;stroke-width:1.0;"/><path d="M364,516.5 L377,516.5 C396.2296,516.5 395.7331,500.9635 413,492.5 C416.9178,490.5797 420.994,488.7368 425.1492,486.977 " fill="none" style="stroke:#000000;stroke-width:1.0;stroke-dasharray:3.0,3.0;"/><path d="M426.3021,489.7984 L427.2652,486.1124 L423.9963,484.1557 L432.2025,484.0948 L426.3021,489.7984 " fill="#000000" style="stroke:#000000;stroke-width:1.0;"/><ellipse cx="364" cy="516.5" fill="#000000" rx="3" ry="3" style="stroke:#000000;stroke-width:1.0;"/><path d="M364,536.5 L377,536.5 C386.2898,536.5 395.9504,536.0977 405.589,535.4294 " fill="none" style="stroke:#000000;stroke-width:1.0;stroke-dasharray:3.0,3.0;"/><path d="M405.8252,538.5165 L407.9044,535.2523 L405.3529,532.3423 L413.3069,534.839 L405.8252,538.5165 " fill="#000000" style="stroke:#000000;stroke-width:1.0;"/><ellipse cx="364" cy="536.5" fill="#000000" rx="3" ry="3" style="stroke:#000000;stroke-width:1.0;"/><path d="M364,557.5 L377,557.5 C397.0311,557.5 418.7863,559.3707 438.3285,561.7444 " fill="none" style="stroke:#000000;stroke-width:1.0;stroke-dasharray:3.0,3.0;"/><path d="M437.941,564.8068 L440.6253,562.035 L438.716,558.682 L445.9846,562.7131 L437.941,564.8068 " fill="#000000" style="stroke:#000000;stroke-width:1.0;"/><ellipse cx="364" cy="557.5" fill="#000000" rx="3" ry="3" style="stroke:#000000;stroke-width:1.0;"/><path d="M364,577.5 L377,577.5 C381.0528,577.5 417.2689,593.3323 449.2796,607.6904 " fill="none" style="stroke:#000000;stroke-width:1.0;stroke-dasharray:3.0,3.0;"/><path d="M447.9896,610.5604 L451.4321,608.6579 L450.5696,604.8204 L456.4547,610.9153 L447.9896,610.5604 " fill="#000000" style="stroke:#000000;stroke-width:1.0;"/><ellipse cx="364" cy="577.5" fill="#000000" rx="3" ry="3" style="stroke:#000000;stroke-width:1.0;"/><path d="M500.5,688.5 L513.5,688.5 C551.2886,688.5 589.7367,672.09 620.3936,654.2282 " fill="none" style="stroke:#000000;stroke-width:1.0;stroke-dasharray:3.0,3.0;"/><path d="M622.0221,656.9556 L622.4392,653.0069 L618.7652,651.5008 L627.2121,650.1571 L622.0221,656.9556 " fill="#000000" style="stroke:#000000;stroke-width:1.0;"/><ellipse cx="500.5" cy="688.5" fill="#000000" rx="3" ry="3" style="stroke:#000000;stroke-width:1.0;"/><path d="M500.5,708.5 L513.5,708.5 C547.851,708.5 586.1296,708.5 617.5585,708.5 " fill="none" style="stroke:#000000;stroke-width:1.0;stroke-dasharray:3.0,3.0;"/><path d="M617.5585,711.6345 L619.9094,708.5 L617.5585,705.3655 L625.3948,708.5 L617.5585,711.6345 " fill="#000000" style="stroke:#000000;stroke-width:1.0;"/><ellipse cx="500.5" cy="708.5" fill="#000000" rx="3" ry="3" style="stroke:#000000;stroke-width:1.0;"/><path d="M500.5,729.5 L513.5,729.5 C550.9028,729.5 589.0312,745.4451 619.5831,762.9167 " fill="none" style="stroke:#000000;stroke-width:1.0;stroke-dasharray:3.0,3.0;"/><path d="M617.9894,765.636 L621.6226,764.1119 L621.1767,760.1974 L626.3814,766.9008 L617.9894,765.636 " fill="#000000" style="stroke:#000000;stroke-width:1.0;"/><ellipse cx="500.5" cy="729.5" fill="#000000" rx="3" ry="3" style="stroke:#000000;stroke-width:1.0;"/><path d="M364,598.5 L377,598.5 C412.3801,598.5 387.5347,644.9384 413,669.5 C432.2772,688.0931 461.7611,699.1658 480.8362,704.7946 " fill="none" style="stroke:#000000;stroke-width:1.0;stroke-dasharray:3.0,3.0;"/><path d="M480.0022,707.7857 L483.0795,705.4202 L481.6703,701.8036 L488.3139,706.8797 L480.0022,707.7857 " fill="#000000" style="stroke:#000000;stroke-width:1.0;"/><ellipse cx="364" cy="598.5" fill="#000000" rx="3" ry="3" style="stroke:#000000;stroke-width:1.0;"/><path d="M138,537.5 L151,537.5 C160.2605,537.5 169.8921,537.5 179.5379,537.5 " fill="none" style="stroke:#000000;stroke-width:1.0;stroke-dasharray:3.0,3.0;"/><path d="M179.5379,540.5928 L181.8575,537.5 L179.5379,534.4072 L187.2699,537.5 L179.5379,540.5928 " fill="#000000" style="stroke:#000000;stroke-width:1.0;"/><ellipse cx="138" cy="537.5" fill="#000000" rx="3" ry="3" style="stroke:#000000;stroke-width:1.0;"/><path d="M329,729.5 L342,729.5 C363.8533,729.5 413.9967,749.6707 451.8766,766.4244 " fill="none" style="stroke:#000000;stroke-width:1.0;stroke-dasharray:3.0,3.0;"/><path d="M450.6435,769.1927 L453.9528,767.3492 L453.1098,763.6561 L458.7973,769.5073 L450.6435,769.1927 " fill="#000000" style="stroke:#000000;stroke-width:1.0;"/><ellipse cx="329" cy="729.5" fill="#000000" rx="3" ry="3" style="stroke:#000000;stroke-width:1.0;"/><path d="M139.5,557.5 L139.5,570.5 C139.5,626.5425 192.785,669.9128 233.9578,695.0595 " fill="none" style="stroke:#000000;stroke-width:1.0;stroke-dasharray:3.0,3.0;"/><path d="M232.4064,697.6571 L235.906,696.2231 L235.5092,692.4619 L240.4518,698.9381 L232.4064,697.6571 " fill="#000000" style="stroke:#000000;stroke-width:1.0;"/><ellipse cx="139.5" cy="557.5" fill="#000000" rx="3" ry="3" style="stroke:#000000;stroke-width:1.0;"/><!--MD5=[384bcda00d222748f310701966b5aa8c]
@startjson "import-parameter-json"
{
    "left_camera" : {
        "kind":"rgb",
        "size" : {
            "width_pix" : 1242,
            "height_pix" : 375
        }
        ,
        "focal_length" : {
            "fx_pix" : 9.895267e+02,
            "fy_pix" : 9.878386e+02
        }
        ,
        "optical_center" : {
            "cx_pix" : 7.020000e+02,
            "cy_pix" : 2.455590e+02
        }
        ,
        "field_of_view" : {
            "fovx_deg" : 90
        }
        ,
        "position" : {
            "x_m" : 0.06,
            "y_m" : 1.65,
            "z_m" : 0.27
        }
        ,
        "projection_matrix" : [
        [7.215377e+02, 0.000000e+00, 6.095593e+02, 4.485728e+01],
        [0.000000e+00, 7.215377e+02, 1.728540e+02, 2.163791e-01],
        [0.000000e+00, 0.000000e+00, 1.000000e+00, 2.745884e-03]
        ]
    }
    ,
    "right_camera" : {
        "kind":"rgb",
        "size" : {
            "width_pix" : 1242,
            "height_pix" : 375
        }
        ,
        "focal_length" : {
            "fx_pix" : 9.037596e+02,
            "fy_pix" : 9.019653e+02
        }
        ,
        "optical_center" : {
            "cx_pix" : 6.957519e+02,
            "cy_pix" : 2.242509e+02
        }
        ,
        "field_of_view" : {
            "fovx_deg" : 90
        }
        ,
        "position" : {
            "x_m" : -0.54,
            "y_m" : 1.65,
            "z_m" : 0.27
        }
        ,
        "projection_matrix" : [
        [7.215377e+02, 0.000000e+00, 6.095593e+02, -3.395242e+02],
        [0.000000e+00, 7.215377e+02, 1.728540e+02, 2.199936e+00],
        [0.000000e+00, 0.000000e+00, 1.000000e+00, 2.729905e-03]
        ]
    }
    ,

    "depth_sensor" : {
        "kind":"lidar",
        "position" : {
            "x_m" : 0.0,
            "y_m" : 1.73,
            "z_m" : 0.0
        }
    }
}
@endjson

PlantUML version 1.2022.7beta2(Unknown compile time)
(GPL source distribution)
Java Runtime: Java(TM) SE Runtime Environment
JVM: Java HotSpot(TM) 64-Bit Server VM
Default Encoding: UTF-8
Language: en
Country: US
--></g></svg>