<?xml version="1.0" encoding="UTF-8" standalone="no"?><svg xmlns="http://www.w3.org/2000/svg" xmlns:xlink="http://www.w3.org/1999/xlink" contentStyleType="text/css" height="930px" preserveAspectRatio="none" style="width:802px;height:930px;background:#FFFFFF;" version="1.1" viewBox="0 0 802 930" width="802px" zoomAndPan="magnify"><defs/><g><rect fill="#F1F1F1" height="60.8906" rx="5" ry="5" style="stroke:#F1F1F1;stroke-width:1.5;" width="128" x="10" y="508"/><text fill="#000000" font-family="sans-serif" font-size="14" font-weight="bold" lengthAdjust="spacing" textLength="85" x="15" y="522.9951">left_image</text><text fill="#000000" font-family="sans-serif" font-size="14" lengthAdjust="spacing" textLength="12" x="121" y="522.9951">   </text><line style="stroke:#000000;stroke-width:1.0;" x1="116" x2="116" y1="508" y2="528.2969"/><line style="stroke:#000000;stroke-width:1.0;" x1="10" x2="138" y1="528.2969" y2="528.2969"/><text fill="#000000" font-family="sans-serif" font-size="14" font-weight="bold" lengthAdjust="spacing" textLength="96" x="15" y="543.292">right_image</text><text fill="#000000" font-family="sans-serif" font-size="14" lengthAdjust="spacing" textLength="12" x="121" y="543.292">   </text><line style="stroke:#000000;stroke-width:1.0;" x1="116" x2="116" y1="528.2969" y2="548.5938"/><line style="stroke:#000000;stroke-width:1.0;" x1="10" x2="138" y1="548.5938" y2="548.5938"/><text fill="#000000" font-family="sans-serif" font-size="14" font-weight="bold" lengthAdjust="spacing" textLength="47" x="15" y="563.5889">depth</text><text fill="#000000" font-family="sans-serif" font-size="14" lengthAdjust="spacing" textLength="12" x="121" y="563.5889">   </text><line style="stroke:#000000;stroke-width:1.0;" x1="116" x2="116" y1="548.5938" y2="568.8906"/><rect fill="none" height="60.8906" rx="5" ry="5" style="stroke:#000000;stroke-width:1.5;" width="128" x="10" y="508"/><rect fill="#F1F1F1" height="142.0781" rx="5" ry="5" style="stroke:#F1F1F1;stroke-width:1.5;" width="249" x="175" y="106.5"/><text fill="#000000" font-family="sans-serif" font-size="14" font-weight="bold" lengthAdjust="spacing" textLength="34" x="180" y="121.4951">kind</text><text fill="#000000" font-family="sans-serif" font-size="14" lengthAdjust="spacing" textLength="85" x="334" y="121.4951">rgb_camera</text><line style="stroke:#000000;stroke-width:1.0;" x1="329" x2="329" y1="106.5" y2="126.7969"/><line style="stroke:#000000;stroke-width:1.0;" x1="175" x2="424" y1="126.7969" y2="126.7969"/><text fill="#000000" font-family="sans-serif" font-size="14" font-weight="bold" lengthAdjust="spacing" textLength="32" x="180" y="141.792">size</text><text fill="#000000" font-family="sans-serif" font-size="14" lengthAdjust="spacing" textLength="12" x="334" y="141.792">   </text><line style="stroke:#000000;stroke-width:1.0;" x1="329" x2="329" y1="126.7969" y2="147.0938"/><line style="stroke:#000000;stroke-width:1.0;" x1="175" x2="424" y1="147.0938" y2="147.0938"/><text fill="#000000" font-family="sans-serif" font-size="14" font-weight="bold" lengthAdjust="spacing" textLength="100" x="180" y="162.0889">focal_length</text><text fill="#000000" font-family="sans-serif" font-size="14" lengthAdjust="spacing" textLength="12" x="334" y="162.0889">   </text><line style="stroke:#000000;stroke-width:1.0;" x1="329" x2="329" y1="147.0938" y2="167.3906"/><line style="stroke:#000000;stroke-width:1.0;" x1="175" x2="424" y1="167.3906" y2="167.3906"/><text fill="#000000" font-family="sans-serif" font-size="14" font-weight="bold" lengthAdjust="spacing" textLength="116" x="180" y="182.3857">optical_center</text><text fill="#000000" font-family="sans-serif" font-size="14" lengthAdjust="spacing" textLength="12" x="334" y="182.3857">   </text><line style="stroke:#000000;stroke-width:1.0;" x1="329" x2="329" y1="167.3906" y2="187.6875"/><line style="stroke:#000000;stroke-width:1.0;" x1="175" x2="424" y1="187.6875" y2="187.6875"/><text fill="#000000" font-family="sans-serif" font-size="14" font-weight="bold" lengthAdjust="spacing" textLength="103" x="180" y="202.6826">field_of_view</text><text fill="#000000" font-family="sans-serif" font-size="14" lengthAdjust="spacing" textLength="12" x="334" y="202.6826">   </text><line style="stroke:#000000;stroke-width:1.0;" x1="329" x2="329" y1="187.6875" y2="207.9844"/><line style="stroke:#000000;stroke-width:1.0;" x1="175" x2="424" y1="207.9844" y2="207.9844"/><text fill="#000000" font-family="sans-serif" font-size="14" font-weight="bold" lengthAdjust="spacing" textLength="138" x="180" y="222.9795">seonsor_position</text><text fill="#000000" font-family="sans-serif" font-size="14" lengthAdjust="spacing" textLength="12" x="334" y="222.9795">   </text><line style="stroke:#000000;stroke-width:1.0;" x1="329" x2="329" y1="207.9844" y2="228.2813"/><line style="stroke:#000000;stroke-width:1.0;" x1="175" x2="424" y1="228.2813" y2="228.2813"/><text fill="#000000" font-family="sans-serif" font-size="14" font-weight="bold" lengthAdjust="spacing" textLength="144" x="180" y="243.2764">projection_matrix</text><text fill="#000000" font-family="sans-serif" font-size="14" lengthAdjust="spacing" textLength="12" x="334" y="243.2764">   </text><line style="stroke:#000000;stroke-width:1.0;" x1="329" x2="329" y1="228.2813" y2="248.5781"/><rect fill="none" height="142.0781" rx="5" ry="5" style="stroke:#000000;stroke-width:1.5;" width="249" x="175" y="106.5"/><rect fill="#F1F1F1" height="40.5938" rx="5" ry="5" style="stroke:#F1F1F1;stroke-width:1.5;" width="136" x="480" y="10"/><text fill="#000000" font-family="sans-serif" font-size="14" font-weight="bold" lengthAdjust="spacing" textLength="77" x="485" y="24.9951">width_pix</text><text fill="#000000" font-family="sans-serif" font-size="14" lengthAdjust="spacing" textLength="33" x="578" y="24.9951">1242</text><line style="stroke:#000000;stroke-width:1.0;" x1="573" x2="573" y1="10" y2="30.2969"/><line style="stroke:#000000;stroke-width:1.0;" x1="480" x2="616" y1="30.2969" y2="30.2969"/><text fill="#000000" font-family="sans-serif" font-size="14" font-weight="bold" lengthAdjust="spacing" textLength="83" x="485" y="45.292">height_pix</text><text fill="#000000" font-family="sans-serif" font-size="14" lengthAdjust="spacing" textLength="27" x="578" y="45.292">375</text><line style="stroke:#000000;stroke-width:1.0;" x1="573" x2="573" y1="30.2969" y2="50.5938"/><rect fill="none" height="40.5938" rx="5" ry="5" style="stroke:#000000;stroke-width:1.5;" width="136" x="480" y="10"/><rect fill="#F1F1F1" height="40.5938" rx="5" ry="5" style="stroke:#F1F1F1;stroke-width:1.5;" width="170" x="463" y="69"/><text fill="#000000" font-family="sans-serif" font-size="14" font-weight="bold" lengthAdjust="spacing" textLength="47" x="468" y="83.9951">fx_pix</text><text fill="#000000" font-family="sans-serif" font-size="14" lengthAdjust="spacing" textLength="103" x="525" y="83.9951">9.895267e+02</text><line style="stroke:#000000;stroke-width:1.0;" x1="520" x2="520" y1="69" y2="89.2969"/><line style="stroke:#000000;stroke-width:1.0;" x1="463" x2="633" y1="89.2969" y2="89.2969"/><text fill="#000000" font-family="sans-serif" font-size="14" font-weight="bold" lengthAdjust="spacing" textLength="47" x="468" y="104.292">fy_pix</text><text fill="#000000" font-family="sans-serif" font-size="14" lengthAdjust="spacing" textLength="102" x="525" y="104.292">9.878386e+02</text><line style="stroke:#000000;stroke-width:1.0;" x1="520" x2="520" y1="89.2969" y2="109.5938"/><rect fill="none" height="40.5938" rx="5" ry="5" style="stroke:#000000;stroke-width:1.5;" width="170" x="463" y="69"/><rect fill="#F1F1F1" height="40.5938" rx="5" ry="5" style="stroke:#F1F1F1;stroke-width:1.5;" width="173" x="461.5" y="128"/><text fill="#000000" font-family="sans-serif" font-size="14" font-weight="bold" lengthAdjust="spacing" textLength="49" x="466.5" y="142.9951">cx_pix</text><text fill="#000000" font-family="sans-serif" font-size="14" lengthAdjust="spacing" textLength="104" x="525.5" y="142.9951">7.020000e+02</text><line style="stroke:#000000;stroke-width:1.0;" x1="520.5" x2="520.5" y1="128" y2="148.2969"/><line style="stroke:#000000;stroke-width:1.0;" x1="461.5" x2="634.5" y1="148.2969" y2="148.2969"/><text fill="#000000" font-family="sans-serif" font-size="14" font-weight="bold" lengthAdjust="spacing" textLength="49" x="466.5" y="163.292">cy_pix</text><text fill="#000000" font-family="sans-serif" font-size="14" lengthAdjust="spacing" textLength="103" x="525.5" y="163.292">2.455590e+02</text><line style="stroke:#000000;stroke-width:1.0;" x1="520.5" x2="520.5" y1="148.2969" y2="168.5938"/><rect fill="none" height="40.5938" rx="5" ry="5" style="stroke:#000000;stroke-width:1.5;" width="173" x="461.5" y="128"/><rect fill="#F1F1F1" height="20.2969" rx="5" ry="5" style="stroke:#F1F1F1;stroke-width:1.5;" width="109" x="493.5" y="187.5"/><text fill="#000000" font-family="sans-serif" font-size="14" font-weight="bold" lengthAdjust="spacing" textLength="71" x="498.5" y="202.4951">fovx_deg</text><text fill="#000000" font-family="sans-serif" font-size="14" lengthAdjust="spacing" textLength="18" x="579.5" y="202.4951">90</text><line style="stroke:#000000;stroke-width:1.0;" x1="574.5" x2="574.5" y1="187.5" y2="207.7969"/><rect fill="none" height="20.2969" rx="5" ry="5" style="stroke:#000000;stroke-width:1.5;" width="109" x="493.5" y="187.5"/><rect fill="#F1F1F1" height="60.8906" rx="5" ry="5" style="stroke:#F1F1F1;stroke-width:1.5;" width="83" x="506.5" y="226"/><text fill="#000000" font-family="sans-serif" font-size="14" font-weight="bold" lengthAdjust="spacing" textLength="31" x="511.5" y="240.9951">x_m</text><text fill="#000000" font-family="sans-serif" font-size="14" lengthAdjust="spacing" textLength="32" x="552.5" y="240.9951">0.06</text><line style="stroke:#000000;stroke-width:1.0;" x1="547.5" x2="547.5" y1="226" y2="246.2969"/><line style="stroke:#000000;stroke-width:1.0;" x1="506.5" x2="589.5" y1="246.2969" y2="246.2969"/><text fill="#000000" font-family="sans-serif" font-size="14" font-weight="bold" lengthAdjust="spacing" textLength="31" x="511.5" y="261.292">y_m</text><text fill="#000000" font-family="sans-serif" font-size="14" lengthAdjust="spacing" textLength="32" x="552.5" y="261.292">1.65</text><line style="stroke:#000000;stroke-width:1.0;" x1="547.5" x2="547.5" y1="246.2969" y2="266.5938"/><line style="stroke:#000000;stroke-width:1.0;" x1="506.5" x2="589.5" y1="266.5938" y2="266.5938"/><text fill="#000000" font-family="sans-serif" font-size="14" font-weight="bold" lengthAdjust="spacing" textLength="31" x="511.5" y="281.5889">z_m</text><text fill="#000000" font-family="sans-serif" font-size="14" lengthAdjust="spacing" textLength="31" x="552.5" y="281.5889">0.27</text><line style="stroke:#000000;stroke-width:1.0;" x1="547.5" x2="547.5" y1="266.5938" y2="286.8906"/><rect fill="none" height="60.8906" rx="5" ry="5" style="stroke:#000000;stroke-width:1.5;" width="83" x="506.5" y="226"/><rect fill="#F1F1F1" height="60.8906" rx="5" ry="5" style="stroke:#F1F1F1;stroke-width:1.5;" width="22" x="536" y="305"/><text fill="#000000" font-family="sans-serif" font-size="14" lengthAdjust="spacing" textLength="12" x="541" y="319.9951">   </text><line style="stroke:#000000;stroke-width:1.0;" x1="536" x2="558" y1="325.2969" y2="325.2969"/><text fill="#000000" font-family="sans-serif" font-size="14" lengthAdjust="spacing" textLength="12" x="541" y="340.292">   </text><line style="stroke:#000000;stroke-width:1.0;" x1="536" x2="558" y1="345.5938" y2="345.5938"/><text fill="#000000" font-family="sans-serif" font-size="14" lengthAdjust="spacing" textLength="12" x="541" y="360.5889">   </text><rect fill="none" height="60.8906" rx="5" ry="5" style="stroke:#000000;stroke-width:1.5;" width="22" x="536" y="305"/><rect fill="#F1F1F1" height="81.1875" rx="5" ry="5" style="stroke:#F1F1F1;stroke-width:1.5;" width="116" x="673" y="195"/><text fill="#000000" font-family="sans-serif" font-size="14" lengthAdjust="spacing" textLength="104" x="678" y="209.9951">7.215377e+02</text><line style="stroke:#000000;stroke-width:1.0;" x1="673" x2="789" y1="215.2969" y2="215.2969"/><text fill="#000000" font-family="sans-serif" font-size="14" lengthAdjust="spacing" textLength="106" x="678" y="230.292">0.000000e+00</text><line style="stroke:#000000;stroke-width:1.0;" x1="673" x2="789" y1="235.5938" y2="235.5938"/><text fill="#000000" font-family="sans-serif" font-size="14" lengthAdjust="spacing" textLength="105" x="678" y="250.5889">6.095593e+02</text><line style="stroke:#000000;stroke-width:1.0;" x1="673" x2="789" y1="255.8906" y2="255.8906"/><text fill="#000000" font-family="sans-serif" font-size="14" lengthAdjust="spacing" textLength="101" x="678" y="270.8857">4.485728e+01</text><rect fill="none" height="81.1875" rx="5" ry="5" style="stroke:#000000;stroke-width:1.5;" width="116" x="673" y="195"/><rect fill="#F1F1F1" height="81.1875" rx="5" ry="5" style="stroke:#F1F1F1;stroke-width:1.5;" width="116" x="673" y="294"/><text fill="#000000" font-family="sans-serif" font-size="14" lengthAdjust="spacing" textLength="106" x="678" y="308.9951">0.000000e+00</text><line style="stroke:#000000;stroke-width:1.0;" x1="673" x2="789" y1="314.2969" y2="314.2969"/><text fill="#000000" font-family="sans-serif" font-size="14" lengthAdjust="spacing" textLength="104" x="678" y="329.292">7.215377e+02</text><line style="stroke:#000000;stroke-width:1.0;" x1="673" x2="789" y1="334.5938" y2="334.5938"/><text fill="#000000" font-family="sans-serif" font-size="14" lengthAdjust="spacing" textLength="102" x="678" y="349.5889">1.728540e+02</text><line style="stroke:#000000;stroke-width:1.0;" x1="673" x2="789" y1="354.8906" y2="354.8906"/><text fill="#000000" font-family="sans-serif" font-size="14" lengthAdjust="spacing" textLength="100" x="678" y="369.8857">2.163791e-01</text><rect fill="none" height="81.1875" rx="5" ry="5" style="stroke:#000000;stroke-width:1.5;" width="116" x="673" y="294"/><rect fill="#F1F1F1" height="81.1875" rx="5" ry="5" style="stroke:#F1F1F1;stroke-width:1.5;" width="116" x="673" y="393"/><text fill="#000000" font-family="sans-serif" font-size="14" lengthAdjust="spacing" textLength="106" x="678" y="407.9951">0.000000e+00</text><line style="stroke:#000000;stroke-width:1.0;" x1="673" x2="789" y1="413.2969" y2="413.2969"/><text fill="#000000" font-family="sans-serif" font-size="14" lengthAdjust="spacing" textLength="106" x="678" y="428.292">0.000000e+00</text><line style="stroke:#000000;stroke-width:1.0;" x1="673" x2="789" y1="433.5938" y2="433.5938"/><text fill="#000000" font-family="sans-serif" font-size="14" lengthAdjust="spacing" textLength="106" x="678" y="448.5889">1.000000e+00</text><line style="stroke:#000000;stroke-width:1.0;" x1="673" x2="789" y1="453.8906" y2="453.8906"/><text fill="#000000" font-family="sans-serif" font-size="14" lengthAdjust="spacing" textLength="96" x="678" y="468.8857">2.745884e-03</text><rect fill="none" height="81.1875" rx="5" ry="5" style="stroke:#000000;stroke-width:1.5;" width="116" x="673" y="393"/><rect fill="#F1F1F1" height="142.0781" rx="5" ry="5" style="stroke:#F1F1F1;stroke-width:1.5;" width="249" x="175" y="466.5"/><text fill="#000000" font-family="sans-serif" font-size="14" font-weight="bold" lengthAdjust="spacing" textLength="34" x="180" y="481.4951">kind</text><text fill="#000000" font-family="sans-serif" font-size="14" lengthAdjust="spacing" textLength="85" x="334" y="481.4951">rgb_camera</text><line style="stroke:#000000;stroke-width:1.0;" x1="329" x2="329" y1="466.5" y2="486.7969"/><line style="stroke:#000000;stroke-width:1.0;" x1="175" x2="424" y1="486.7969" y2="486.7969"/><text fill="#000000" font-family="sans-serif" font-size="14" font-weight="bold" lengthAdjust="spacing" textLength="32" x="180" y="501.792">size</text><text fill="#000000" font-family="sans-serif" font-size="14" lengthAdjust="spacing" textLength="12" x="334" y="501.792">   </text><line style="stroke:#000000;stroke-width:1.0;" x1="329" x2="329" y1="486.7969" y2="507.0938"/><line style="stroke:#000000;stroke-width:1.0;" x1="175" x2="424" y1="507.0938" y2="507.0938"/><text fill="#000000" font-family="sans-serif" font-size="14" font-weight="bold" lengthAdjust="spacing" textLength="100" x="180" y="522.0889">focal_length</text><text fill="#000000" font-family="sans-serif" font-size="14" lengthAdjust="spacing" textLength="12" x="334" y="522.0889">   </text><line style="stroke:#000000;stroke-width:1.0;" x1="329" x2="329" y1="507.0938" y2="527.3906"/><line style="stroke:#000000;stroke-width:1.0;" x1="175" x2="424" y1="527.3906" y2="527.3906"/><text fill="#000000" font-family="sans-serif" font-size="14" font-weight="bold" lengthAdjust="spacing" textLength="116" x="180" y="542.3857">optical_center</text><text fill="#000000" font-family="sans-serif" font-size="14" lengthAdjust="spacing" textLength="12" x="334" y="542.3857">   </text><line style="stroke:#000000;stroke-width:1.0;" x1="329" x2="329" y1="527.3906" y2="547.6875"/><line style="stroke:#000000;stroke-width:1.0;" x1="175" x2="424" y1="547.6875" y2="547.6875"/><text fill="#000000" font-family="sans-serif" font-size="14" font-weight="bold" lengthAdjust="spacing" textLength="103" x="180" y="562.6826">field_of_view</text><text fill="#000000" font-family="sans-serif" font-size="14" lengthAdjust="spacing" textLength="12" x="334" y="562.6826">   </text><line style="stroke:#000000;stroke-width:1.0;" x1="329" x2="329" y1="547.6875" y2="567.9844"/><line style="stroke:#000000;stroke-width:1.0;" x1="175" x2="424" y1="567.9844" y2="567.9844"/><text fill="#000000" font-family="sans-serif" font-size="14" font-weight="bold" lengthAdjust="spacing" textLength="138" x="180" y="582.9795">seonsor_position</text><text fill="#000000" font-family="sans-serif" font-size="14" lengthAdjust="spacing" textLength="12" x="334" y="582.9795">   </text><line style="stroke:#000000;stroke-width:1.0;" x1="329" x2="329" y1="567.9844" y2="588.2813"/><line style="stroke:#000000;stroke-width:1.0;" x1="175" x2="424" y1="588.2813" y2="588.2813"/><text fill="#000000" font-family="sans-serif" font-size="14" font-weight="bold" lengthAdjust="spacing" textLength="144" x="180" y="603.2764">projection_matrix</text><text fill="#000000" font-family="sans-serif" font-size="14" lengthAdjust="spacing" textLength="12" x="334" y="603.2764">   </text><line style="stroke:#000000;stroke-width:1.0;" x1="329" x2="329" y1="588.2813" y2="608.5781"/><rect fill="none" height="142.0781" rx="5" ry="5" style="stroke:#000000;stroke-width:1.5;" width="249" x="175" y="466.5"/><rect fill="#F1F1F1" height="40.5938" rx="5" ry="5" style="stroke:#F1F1F1;stroke-width:1.5;" width="136" x="480" y="384"/><text fill="#000000" font-family="sans-serif" font-size="14" font-weight="bold" lengthAdjust="spacing" textLength="77" x="485" y="398.9951">width_pix</text><text fill="#000000" font-family="sans-serif" font-size="14" lengthAdjust="spacing" textLength="33" x="578" y="398.9951">1242</text><line style="stroke:#000000;stroke-width:1.0;" x1="573" x2="573" y1="384" y2="404.2969"/><line style="stroke:#000000;stroke-width:1.0;" x1="480" x2="616" y1="404.2969" y2="404.2969"/><text fill="#000000" font-family="sans-serif" font-size="14" font-weight="bold" lengthAdjust="spacing" textLength="83" x="485" y="419.292">height_pix</text><text fill="#000000" font-family="sans-serif" font-size="14" lengthAdjust="spacing" textLength="27" x="578" y="419.292">375</text><line style="stroke:#000000;stroke-width:1.0;" x1="573" x2="573" y1="404.2969" y2="424.5938"/><rect fill="none" height="40.5938" rx="5" ry="5" style="stroke:#000000;stroke-width:1.5;" width="136" x="480" y="384"/><rect fill="#F1F1F1" height="40.5938" rx="5" ry="5" style="stroke:#F1F1F1;stroke-width:1.5;" width="172" x="462" y="443"/><text fill="#000000" font-family="sans-serif" font-size="14" font-weight="bold" lengthAdjust="spacing" textLength="47" x="467" y="457.9951">fx_pix</text><text fill="#000000" font-family="sans-serif" font-size="14" lengthAdjust="spacing" textLength="105" x="524" y="457.9951">9.037596e+02</text><line style="stroke:#000000;stroke-width:1.0;" x1="519" x2="519" y1="443" y2="463.2969"/><line style="stroke:#000000;stroke-width:1.0;" x1="462" x2="634" y1="463.2969" y2="463.2969"/><text fill="#000000" font-family="sans-serif" font-size="14" font-weight="bold" lengthAdjust="spacing" textLength="47" x="467" y="478.292">fy_pix</text><text fill="#000000" font-family="sans-serif" font-size="14" lengthAdjust="spacing" textLength="105" x="524" y="478.292">9.019653e+02</text><line style="stroke:#000000;stroke-width:1.0;" x1="519" x2="519" y1="463.2969" y2="483.5938"/><rect fill="none" height="40.5938" rx="5" ry="5" style="stroke:#000000;stroke-width:1.5;" width="172" x="462" y="443"/><rect fill="#F1F1F1" height="40.5938" rx="5" ry="5" style="stroke:#F1F1F1;stroke-width:1.5;" width="174" x="461" y="502"/><text fill="#000000" font-family="sans-serif" font-size="14" font-weight="bold" lengthAdjust="spacing" textLength="49" x="466" y="516.9951">cx_pix</text><text fill="#000000" font-family="sans-serif" font-size="14" lengthAdjust="spacing" textLength="105" x="525" y="516.9951">6.957519e+02</text><line style="stroke:#000000;stroke-width:1.0;" x1="520" x2="520" y1="502" y2="522.2969"/><line style="stroke:#000000;stroke-width:1.0;" x1="461" x2="635" y1="522.2969" y2="522.2969"/><text fill="#000000" font-family="sans-serif" font-size="14" font-weight="bold" lengthAdjust="spacing" textLength="49" x="466" y="537.292">cy_pix</text><text fill="#000000" font-family="sans-serif" font-size="14" lengthAdjust="spacing" textLength="101" x="525" y="537.292">2.242509e+02</text><line style="stroke:#000000;stroke-width:1.0;" x1="520" x2="520" y1="522.2969" y2="542.5938"/><rect fill="none" height="40.5938" rx="5" ry="5" style="stroke:#000000;stroke-width:1.5;" width="174" x="461" y="502"/><rect fill="#F1F1F1" height="20.2969" rx="5" ry="5" style="stroke:#F1F1F1;stroke-width:1.5;" width="109" x="493.5" y="561.5"/><text fill="#000000" font-family="sans-serif" font-size="14" font-weight="bold" lengthAdjust="spacing" textLength="71" x="498.5" y="576.4951">fovx_deg</text><text fill="#000000" font-family="sans-serif" font-size="14" lengthAdjust="spacing" textLength="18" x="579.5" y="576.4951">90</text><line style="stroke:#000000;stroke-width:1.0;" x1="574.5" x2="574.5" y1="561.5" y2="581.7969"/><rect fill="none" height="20.2969" rx="5" ry="5" style="stroke:#000000;stroke-width:1.5;" width="109" x="493.5" y="561.5"/><rect fill="#F1F1F1" height="60.8906" rx="5" ry="5" style="stroke:#F1F1F1;stroke-width:1.5;" width="88" x="504" y="600"/><text fill="#000000" font-family="sans-serif" font-size="14" font-weight="bold" lengthAdjust="spacing" textLength="31" x="509" y="614.9951">x_m</text><text fill="#000000" font-family="sans-serif" font-size="14" lengthAdjust="spacing" textLength="37" x="550" y="614.9951">-0.54</text><line style="stroke:#000000;stroke-width:1.0;" x1="545" x2="545" y1="600" y2="620.2969"/><line style="stroke:#000000;stroke-width:1.0;" x1="504" x2="592" y1="620.2969" y2="620.2969"/><text fill="#000000" font-family="sans-serif" font-size="14" font-weight="bold" lengthAdjust="spacing" textLength="31" x="509" y="635.292">y_m</text><text fill="#000000" font-family="sans-serif" font-size="14" lengthAdjust="spacing" textLength="32" x="550" y="635.292">1.65</text><line style="stroke:#000000;stroke-width:1.0;" x1="545" x2="545" y1="620.2969" y2="640.5938"/><line style="stroke:#000000;stroke-width:1.0;" x1="504" x2="592" y1="640.5938" y2="640.5938"/><text fill="#000000" font-family="sans-serif" font-size="14" font-weight="bold" lengthAdjust="spacing" textLength="31" x="509" y="655.5889">z_m</text><text fill="#000000" font-family="sans-serif" font-size="14" lengthAdjust="spacing" textLength="31" x="550" y="655.5889">0.27</text><line style="stroke:#000000;stroke-width:1.0;" x1="545" x2="545" y1="640.5938" y2="660.8906"/><rect fill="none" height="60.8906" rx="5" ry="5" style="stroke:#000000;stroke-width:1.5;" width="88" x="504" y="600"/><rect fill="#F1F1F1" height="60.8906" rx="5" ry="5" style="stroke:#F1F1F1;stroke-width:1.5;" width="22" x="536" y="679"/><text fill="#000000" font-family="sans-serif" font-size="14" lengthAdjust="spacing" textLength="12" x="541" y="693.9951">   </text><line style="stroke:#000000;stroke-width:1.0;" x1="536" x2="558" y1="699.2969" y2="699.2969"/><text fill="#000000" font-family="sans-serif" font-size="14" lengthAdjust="spacing" textLength="12" x="541" y="714.292">   </text><line style="stroke:#000000;stroke-width:1.0;" x1="536" x2="558" y1="719.5938" y2="719.5938"/><text fill="#000000" font-family="sans-serif" font-size="14" lengthAdjust="spacing" textLength="12" x="541" y="734.5889">   </text><rect fill="none" height="60.8906" rx="5" ry="5" style="stroke:#000000;stroke-width:1.5;" width="22" x="536" y="679"/><rect fill="#F1F1F1" height="81.1875" rx="5" ry="5" style="stroke:#F1F1F1;stroke-width:1.5;" width="118" x="672" y="569"/><text fill="#000000" font-family="sans-serif" font-size="14" lengthAdjust="spacing" textLength="104" x="677" y="583.9951">7.215377e+02</text><line style="stroke:#000000;stroke-width:1.0;" x1="672" x2="790" y1="589.2969" y2="589.2969"/><text fill="#000000" font-family="sans-serif" font-size="14" lengthAdjust="spacing" textLength="106" x="677" y="604.292">0.000000e+00</text><line style="stroke:#000000;stroke-width:1.0;" x1="672" x2="790" y1="609.5938" y2="609.5938"/><text fill="#000000" font-family="sans-serif" font-size="14" lengthAdjust="spacing" textLength="105" x="677" y="624.5889">6.095593e+02</text><line style="stroke:#000000;stroke-width:1.0;" x1="672" x2="790" y1="629.8906" y2="629.8906"/><text fill="#000000" font-family="sans-serif" font-size="14" lengthAdjust="spacing" textLength="108" x="677" y="644.8857">-3.395242e+02</text><rect fill="none" height="81.1875" rx="5" ry="5" style="stroke:#000000;stroke-width:1.5;" width="118" x="672" y="569"/><rect fill="#F1F1F1" height="81.1875" rx="5" ry="5" style="stroke:#F1F1F1;stroke-width:1.5;" width="116" x="673" y="668"/><text fill="#000000" font-family="sans-serif" font-size="14" lengthAdjust="spacing" textLength="106" x="678" y="682.9951">0.000000e+00</text><line style="stroke:#000000;stroke-width:1.0;" x1="673" x2="789" y1="688.2969" y2="688.2969"/><text fill="#000000" font-family="sans-serif" font-size="14" lengthAdjust="spacing" textLength="104" x="678" y="703.292">7.215377e+02</text><line style="stroke:#000000;stroke-width:1.0;" x1="673" x2="789" y1="708.5938" y2="708.5938"/><text fill="#000000" font-family="sans-serif" font-size="14" lengthAdjust="spacing" textLength="102" x="678" y="723.5889">1.728540e+02</text><line style="stroke:#000000;stroke-width:1.0;" x1="673" x2="789" y1="728.8906" y2="728.8906"/><text fill="#000000" font-family="sans-serif" font-size="14" lengthAdjust="spacing" textLength="105" x="678" y="743.8857">2.199936e+00</text><rect fill="none" height="81.1875" rx="5" ry="5" style="stroke:#000000;stroke-width:1.5;" width="116" x="673" y="668"/><rect fill="#F1F1F1" height="81.1875" rx="5" ry="5" style="stroke:#F1F1F1;stroke-width:1.5;" width="116" x="673" y="767"/><text fill="#000000" font-family="sans-serif" font-size="14" lengthAdjust="spacing" textLength="106" x="678" y="781.9951">0.000000e+00</text><line style="stroke:#000000;stroke-width:1.0;" x1="673" x2="789" y1="787.2969" y2="787.2969"/><text fill="#000000" font-family="sans-serif" font-size="14" lengthAdjust="spacing" textLength="106" x="678" y="802.292">0.000000e+00</text><line style="stroke:#000000;stroke-width:1.0;" x1="673" x2="789" y1="807.5938" y2="807.5938"/><text fill="#000000" font-family="sans-serif" font-size="14" lengthAdjust="spacing" textLength="106" x="678" y="822.5889">1.000000e+00</text><line style="stroke:#000000;stroke-width:1.0;" x1="673" x2="789" y1="827.8906" y2="827.8906"/><text fill="#000000" font-family="sans-serif" font-size="14" lengthAdjust="spacing" textLength="99" x="678" y="842.8857">2.729905e-03</text><rect fill="none" height="81.1875" rx="5" ry="5" style="stroke:#000000;stroke-width:1.5;" width="116" x="673" y="767"/><rect fill="#F1F1F1" height="60.8906" rx="5" ry="5" style="stroke:#F1F1F1;stroke-width:1.5;" width="205" x="197" y="759"/><text fill="#000000" font-family="sans-serif" font-size="14" font-weight="bold" lengthAdjust="spacing" textLength="34" x="202" y="773.9951">kind</text><text fill="#000000" font-family="sans-serif" font-size="14" lengthAdjust="spacing" textLength="31" x="366" y="773.9951">lidar</text><line style="stroke:#000000;stroke-width:1.0;" x1="361" x2="361" y1="759" y2="779.2969"/><line style="stroke:#000000;stroke-width:1.0;" x1="197" x2="402" y1="779.2969" y2="779.2969"/><text fill="#000000" font-family="sans-serif" font-size="14" font-weight="bold" lengthAdjust="spacing" textLength="138" x="202" y="794.292">seonsor_position</text><text fill="#000000" font-family="sans-serif" font-size="14" lengthAdjust="spacing" textLength="12" x="366" y="794.292">   </text><line style="stroke:#000000;stroke-width:1.0;" x1="361" x2="361" y1="779.2969" y2="799.5938"/><line style="stroke:#000000;stroke-width:1.0;" x1="197" x2="402" y1="799.5938" y2="799.5938"/><text fill="#000000" font-family="sans-serif" font-size="14" font-weight="bold" lengthAdjust="spacing" textLength="154" x="202" y="814.5889">coordinate_system</text><text fill="#000000" font-family="sans-serif" font-size="14" lengthAdjust="spacing" textLength="12" x="366" y="814.5889">   </text><line style="stroke:#000000;stroke-width:1.0;" x1="361" x2="361" y1="799.5938" y2="819.8906"/><rect fill="none" height="60.8906" rx="5" ry="5" style="stroke:#000000;stroke-width:1.5;" width="205" x="197" y="759"/><rect fill="#F1F1F1" height="60.8906" rx="5" ry="5" style="stroke:#F1F1F1;stroke-width:1.5;" width="83" x="506.5" y="758"/><text fill="#000000" font-family="sans-serif" font-size="14" font-weight="bold" lengthAdjust="spacing" textLength="31" x="511.5" y="772.9951">x_m</text><text fill="#000000" font-family="sans-serif" font-size="14" lengthAdjust="spacing" textLength="23" x="552.5" y="772.9951">0.0</text><line style="stroke:#000000;stroke-width:1.0;" x1="547.5" x2="547.5" y1="758" y2="778.2969"/><line style="stroke:#000000;stroke-width:1.0;" x1="506.5" x2="589.5" y1="778.2969" y2="778.2969"/><text fill="#000000" font-family="sans-serif" font-size="14" font-weight="bold" lengthAdjust="spacing" textLength="31" x="511.5" y="793.292">y_m</text><text fill="#000000" font-family="sans-serif" font-size="14" lengthAdjust="spacing" textLength="32" x="552.5" y="793.292">1.73</text><line style="stroke:#000000;stroke-width:1.0;" x1="547.5" x2="547.5" y1="778.2969" y2="798.5938"/><line style="stroke:#000000;stroke-width:1.0;" x1="506.5" x2="589.5" y1="798.5938" y2="798.5938"/><text fill="#000000" font-family="sans-serif" font-size="14" font-weight="bold" lengthAdjust="spacing" textLength="31" x="511.5" y="813.5889">z_m</text><text fill="#000000" font-family="sans-serif" font-size="14" lengthAdjust="spacing" textLength="23" x="552.5" y="813.5889">0.0</text><line style="stroke:#000000;stroke-width:1.0;" x1="547.5" x2="547.5" y1="798.5938" y2="818.8906"/><rect fill="none" height="60.8906" rx="5" ry="5" style="stroke:#000000;stroke-width:1.5;" width="83" x="506.5" y="758"/><rect fill="#F1F1F1" height="81.1875" rx="5" ry="5" style="stroke:#F1F1F1;stroke-width:1.5;" width="117" x="489.5" y="837"/><text fill="#000000" font-family="sans-serif" font-size="14" font-weight="bold" lengthAdjust="spacing" textLength="73" x="494.5" y="851.9951">xyz_from</text><text fill="#000000" font-family="sans-serif" font-size="14" lengthAdjust="spacing" textLength="24" x="577.5" y="851.9951">yzx</text><line style="stroke:#000000;stroke-width:1.0;" x1="572.5" x2="572.5" y1="837" y2="857.2969"/><line style="stroke:#000000;stroke-width:1.0;" x1="489.5" x2="606.5" y1="857.2969" y2="857.2969"/><text fill="#000000" font-family="sans-serif" font-size="14" font-weight="bold" lengthAdjust="spacing" textLength="9" x="494.5" y="872.292">x</text><text fill="#000000" font-family="sans-serif" font-size="14" lengthAdjust="spacing" textLength="9" x="577.5" y="872.292">1</text><line style="stroke:#000000;stroke-width:1.0;" x1="572.5" x2="572.5" y1="857.2969" y2="877.5938"/><line style="stroke:#000000;stroke-width:1.0;" x1="489.5" x2="606.5" y1="877.5938" y2="877.5938"/><text fill="#000000" font-family="sans-serif" font-size="14" font-weight="bold" lengthAdjust="spacing" textLength="9" x="494.5" y="892.5889">y</text><text fill="#000000" font-family="sans-serif" font-size="14" lengthAdjust="spacing" textLength="8" x="577.5" y="892.5889">2</text><line style="stroke:#000000;stroke-width:1.0;" x1="572.5" x2="572.5" y1="877.5938" y2="897.8906"/><line style="stroke:#000000;stroke-width:1.0;" x1="489.5" x2="606.5" y1="897.8906" y2="897.8906"/><text fill="#000000" font-family="sans-serif" font-size="14" font-weight="bold" lengthAdjust="spacing" textLength="9" x="494.5" y="912.8857">z</text><text fill="#000000" font-family="sans-serif" font-size="14" lengthAdjust="spacing" textLength="9" x="577.5" y="912.8857">0</text><line style="stroke:#000000;stroke-width:1.0;" x1="572.5" x2="572.5" y1="897.8906" y2="918.1875"/><rect fill="none" height="81.1875" rx="5" ry="5" style="stroke:#000000;stroke-width:1.5;" width="117" x="489.5" y="837"/><path d="M412,136.5 L425,136.5 C462.7778,136.5 432.8105,84.6498 461,59.5 C464.8116,56.0994 469.0356,53.0954 473.5076,50.442 " fill="none" style="stroke:#000000;stroke-width:1.0;stroke-dasharray:3.0,3.0;"/><path d="M474.9644,53.1261 L475.5207,49.3494 L472.0508,47.7579 L480.218,46.8 L474.9644,53.1261 " fill="#000000" style="stroke:#000000;stroke-width:1.0;"/><ellipse cx="412" cy="136.5" fill="#000000" rx="3" ry="3" style="stroke:#000000;stroke-width:1.0;"/><path d="M412,156.5 L425,156.5 C448.2644,156.5 441.388,131.0141 461,118.5 C463.7038,116.7747 466.5211,115.141 469.4171,113.595 " fill="none" style="stroke:#000000;stroke-width:1.0;stroke-dasharray:3.0,3.0;"/><path d="M470.7969,116.3484 L471.4821,112.5601 L468.0372,110.8416 L476.3005,110.1454 L470.7969,116.3484 " fill="#000000" style="stroke:#000000;stroke-width:1.0;"/><ellipse cx="412" cy="156.5" fill="#000000" rx="3" ry="3" style="stroke:#000000;stroke-width:1.0;"/><path d="M412,176.5 L425,176.5 C441.3644,176.5 458.6564,174.096 474.9273,170.6968 " fill="none" style="stroke:#000000;stroke-width:1.0;stroke-dasharray:3.0,3.0;"/><path d="M475.578,173.6556 L477.1464,170.2088 L474.2766,167.738 L482.3243,169.07 L475.578,173.6556 " fill="#000000" style="stroke:#000000;stroke-width:1.0;"/><ellipse cx="412" cy="176.5" fill="#000000" rx="3" ry="3" style="stroke:#000000;stroke-width:1.0;"/><path d="M412,197.5 L425,197.5 C444.9016,197.5 466.6219,197.5 486.1721,197.5 " fill="none" style="stroke:#000000;stroke-width:1.0;stroke-dasharray:3.0,3.0;"/><path d="M486.1721,200.5646 L488.4705,197.5 L486.1721,194.4354 L493.8335,197.5 L486.1721,200.5646 " fill="#000000" style="stroke:#000000;stroke-width:1.0;"/><ellipse cx="412" cy="197.5" fill="#000000" rx="3" ry="3" style="stroke:#000000;stroke-width:1.0;"/><path d="M412,217.5 L425,217.5 C450.4765,217.5 477.5885,225.2537 499.8124,233.8466 " fill="none" style="stroke:#000000;stroke-width:1.0;stroke-dasharray:3.0,3.0;"/><path d="M498.6881,236.6608 L501.923,234.6898 L500.9366,231.0324 L506.8479,236.6572 L498.6881,236.6608 " fill="#000000" style="stroke:#000000;stroke-width:1.0;"/><ellipse cx="412" cy="217.5" fill="#000000" rx="3" ry="3" style="stroke:#000000;stroke-width:1.0;"/><path d="M548.5,314.5 L561.5,314.5 C599.2886,314.5 637.7367,298.09 668.3936,280.2282 " fill="none" style="stroke:#000000;stroke-width:1.0;stroke-dasharray:3.0,3.0;"/><path d="M670.0221,282.9556 L670.4392,279.0069 L666.7652,277.5008 L675.2121,276.1571 L670.0221,282.9556 " fill="#000000" style="stroke:#000000;stroke-width:1.0;"/><ellipse cx="548.5" cy="314.5" fill="#000000" rx="3" ry="3" style="stroke:#000000;stroke-width:1.0;"/><path d="M548.5,334.5 L561.5,334.5 C595.851,334.5 634.1296,334.5 665.5585,334.5 " fill="none" style="stroke:#000000;stroke-width:1.0;stroke-dasharray:3.0,3.0;"/><path d="M665.5585,337.6345 L667.9094,334.5 L665.5585,331.3655 L673.3948,334.5 L665.5585,337.6345 " fill="#000000" style="stroke:#000000;stroke-width:1.0;"/><ellipse cx="548.5" cy="334.5" fill="#000000" rx="3" ry="3" style="stroke:#000000;stroke-width:1.0;"/><path d="M548.5,355.5 L561.5,355.5 C598.9028,355.5 637.0312,371.4451 667.5831,388.9167 " fill="none" style="stroke:#000000;stroke-width:1.0;stroke-dasharray:3.0,3.0;"/><path d="M665.9894,391.636 L669.6226,390.1119 L669.1767,386.1974 L674.3814,392.9008 L665.9894,391.636 " fill="#000000" style="stroke:#000000;stroke-width:1.0;"/><ellipse cx="548.5" cy="355.5" fill="#000000" rx="3" ry="3" style="stroke:#000000;stroke-width:1.0;"/><path d="M412,238.5 L425,238.5 C454.9629,238.5 438.4798,275.7359 461,295.5 C481.0211,313.0708 510.0721,324.3618 528.8764,330.3221 " fill="none" style="stroke:#000000;stroke-width:1.0;stroke-dasharray:3.0,3.0;"/><path d="M527.984,333.2722 L531.089,330.9913 L529.7687,327.3719 L536.2518,332.5529 L527.984,333.2722 " fill="#000000" style="stroke:#000000;stroke-width:1.0;"/><ellipse cx="412" cy="238.5" fill="#000000" rx="3" ry="3" style="stroke:#000000;stroke-width:1.0;"/><path d="M127.5,519.5 L127.5,506.5 C127.5,412.1205 183.6822,318.0005 231.7339,254.7611 " fill="none" style="stroke:#000000;stroke-width:1.0;stroke-dasharray:3.0,3.0;"/><path d="M234.143,256.6101 L233.1207,252.9543 L229.3249,252.912 L236.3566,248.7386 L234.143,256.6101 " fill="#000000" style="stroke:#000000;stroke-width:1.0;"/><ellipse cx="127.5" cy="519.5" fill="#000000" rx="3" ry="3" style="stroke:#000000;stroke-width:1.0;"/><path d="M412,496.5 L425,496.5 C457.249,496.5 436.0782,453.9671 461,433.5 C464.8652,430.3257 469.093,427.4932 473.5352,424.9666 " fill="none" style="stroke:#000000;stroke-width:1.0;stroke-dasharray:3.0,3.0;"/><path d="M474.93,427.6243 L475.5285,423.9204 L472.1403,422.3089 L480.1795,421.4794 L474.93,427.6243 " fill="#000000" style="stroke:#000000;stroke-width:1.0;"/><ellipse cx="412" cy="496.5" fill="#000000" rx="3" ry="3" style="stroke:#000000;stroke-width:1.0;"/><path d="M412,516.5 L425,516.5 C444.2296,516.5 443.7331,500.9635 461,492.5 C464.9178,490.5797 468.994,488.7368 473.1492,486.977 " fill="none" style="stroke:#000000;stroke-width:1.0;stroke-dasharray:3.0,3.0;"/><path d="M474.3021,489.7984 L475.2652,486.1124 L471.9963,484.1557 L480.2025,484.0948 L474.3021,489.7984 " fill="#000000" style="stroke:#000000;stroke-width:1.0;"/><ellipse cx="412" cy="516.5" fill="#000000" rx="3" ry="3" style="stroke:#000000;stroke-width:1.0;"/><path d="M412,536.5 L425,536.5 C434.2898,536.5 443.9504,536.0977 453.589,535.4294 " fill="none" style="stroke:#000000;stroke-width:1.0;stroke-dasharray:3.0,3.0;"/><path d="M453.8252,538.5165 L455.9044,535.2523 L453.3529,532.3423 L461.3069,534.839 L453.8252,538.5165 " fill="#000000" style="stroke:#000000;stroke-width:1.0;"/><ellipse cx="412" cy="536.5" fill="#000000" rx="3" ry="3" style="stroke:#000000;stroke-width:1.0;"/><path d="M412,557.5 L425,557.5 C445.0311,557.5 466.7863,559.3707 486.3285,561.7444 " fill="none" style="stroke:#000000;stroke-width:1.0;stroke-dasharray:3.0,3.0;"/><path d="M485.941,564.8068 L488.6253,562.035 L486.716,558.682 L493.9846,562.7131 L485.941,564.8068 " fill="#000000" style="stroke:#000000;stroke-width:1.0;"/><ellipse cx="412" cy="557.5" fill="#000000" rx="3" ry="3" style="stroke:#000000;stroke-width:1.0;"/><path d="M412,577.5 L425,577.5 C429.0528,577.5 465.2689,593.3323 497.2796,607.6904 " fill="none" style="stroke:#000000;stroke-width:1.0;stroke-dasharray:3.0,3.0;"/><path d="M495.9896,610.5604 L499.4321,608.6579 L498.5696,604.8204 L504.4547,610.9153 L495.9896,610.5604 " fill="#000000" style="stroke:#000000;stroke-width:1.0;"/><ellipse cx="412" cy="577.5" fill="#000000" rx="3" ry="3" style="stroke:#000000;stroke-width:1.0;"/><path d="M548.5,688.5 L561.5,688.5 C599.2886,688.5 637.7367,672.09 668.3936,654.2282 " fill="none" style="stroke:#000000;stroke-width:1.0;stroke-dasharray:3.0,3.0;"/><path d="M670.0221,656.9556 L670.4392,653.0069 L666.7652,651.5008 L675.2121,650.1571 L670.0221,656.9556 " fill="#000000" style="stroke:#000000;stroke-width:1.0;"/><ellipse cx="548.5" cy="688.5" fill="#000000" rx="3" ry="3" style="stroke:#000000;stroke-width:1.0;"/><path d="M548.5,708.5 L561.5,708.5 C595.851,708.5 634.1296,708.5 665.5585,708.5 " fill="none" style="stroke:#000000;stroke-width:1.0;stroke-dasharray:3.0,3.0;"/><path d="M665.5585,711.6345 L667.9094,708.5 L665.5585,705.3655 L673.3948,708.5 L665.5585,711.6345 " fill="#000000" style="stroke:#000000;stroke-width:1.0;"/><ellipse cx="548.5" cy="708.5" fill="#000000" rx="3" ry="3" style="stroke:#000000;stroke-width:1.0;"/><path d="M548.5,729.5 L561.5,729.5 C598.9028,729.5 637.0312,745.4451 667.5831,762.9167 " fill="none" style="stroke:#000000;stroke-width:1.0;stroke-dasharray:3.0,3.0;"/><path d="M665.9894,765.636 L669.6226,764.1119 L669.1767,760.1974 L674.3814,766.9008 L665.9894,765.636 " fill="#000000" style="stroke:#000000;stroke-width:1.0;"/><ellipse cx="548.5" cy="729.5" fill="#000000" rx="3" ry="3" style="stroke:#000000;stroke-width:1.0;"/><path d="M412,598.5 L425,598.5 C460.3801,598.5 435.5347,644.9384 461,669.5 C480.2772,688.0931 509.7611,699.1658 528.8362,704.7946 " fill="none" style="stroke:#000000;stroke-width:1.0;stroke-dasharray:3.0,3.0;"/><path d="M528.0022,707.7857 L531.0795,705.4202 L529.6703,701.8036 L536.3139,706.8797 L528.0022,707.7857 " fill="#000000" style="stroke:#000000;stroke-width:1.0;"/><ellipse cx="412" cy="598.5" fill="#000000" rx="3" ry="3" style="stroke:#000000;stroke-width:1.0;"/><path d="M126,537.5 L139,537.5 C148.3153,537.5 157.9357,537.5 167.6214,537.5 " fill="none" style="stroke:#000000;stroke-width:1.0;stroke-dasharray:3.0,3.0;"/><path d="M167.6214,540.6109 L169.9545,537.5 L167.6214,534.3891 L175.3985,537.5 L167.6214,540.6109 " fill="#000000" style="stroke:#000000;stroke-width:1.0;"/><ellipse cx="126" cy="537.5" fill="#000000" rx="3" ry="3" style="stroke:#000000;stroke-width:1.0;"/><path d="M391,788.5 L404,788.5 C435.7672,788.5 471.4902,788.5 499.347,788.5 " fill="none" style="stroke:#000000;stroke-width:1.0;stroke-dasharray:3.0,3.0;"/><path d="M499.347,791.5554 L501.6386,788.5 L499.347,785.4446 L506.9856,788.5 L499.347,791.5554 " fill="#000000" style="stroke:#000000;stroke-width:1.0;"/><ellipse cx="391" cy="788.5" fill="#000000" rx="3" ry="3" style="stroke:#000000;stroke-width:1.0;"/><path d="M391,809.5 L404,809.5 C420.5316,809.5 453.0677,824.4239 482.9847,840.2887 " fill="none" style="stroke:#000000;stroke-width:1.0;stroke-dasharray:3.0,3.0;"/><path d="M481.5409,842.9827 L485.0052,841.3717 L484.4286,837.5948 L489.7196,843.8984 L481.5409,842.9827 " fill="#000000" style="stroke:#000000;stroke-width:1.0;"/><ellipse cx="391" cy="809.5" fill="#000000" rx="3" ry="3" style="stroke:#000000;stroke-width:1.0;"/><path d="M127.5,557.5 L127.5,570.5 C127.5,648.693 196.1079,715.5832 246.5358,754.1877 " fill="none" style="stroke:#000000;stroke-width:1.0;stroke-dasharray:3.0,3.0;"/><path d="M244.7092,756.6092 L248.352,755.5576 L248.3624,751.7662 L252.5896,758.7542 L244.7092,756.6092 " fill="#000000" style="stroke:#000000;stroke-width:1.0;"/><ellipse cx="127.5" cy="557.5" fill="#000000" rx="3" ry="3" style="stroke:#000000;stroke-width:1.0;"/><!--MD5=[12ff86206d83ddb5921cdc34d4b954e7]
@startjson "import-parameter-json"
{
    "left_image" : {
        "kind":"rgb_camera",
        "size" : {
            "width_pix" : 1242,
            "height_pix" : 375
        }
        ,
        "focal_length" : {
            "fx_pix" : 9.895267e+02,
            "fy_pix" : 9.878386e+02
        }
        ,
        "optical_center" : {
            "cx_pix" : 7.020000e+02,
            "cy_pix" : 2.455590e+02
        }
        ,
        "field_of_view" : {
            "fovx_deg" : 90
        }
        ,
        "seonsor_position" : {
            "x_m" : 0.06,
            "y_m" : 1.65,
            "z_m" : 0.27
        }
        ,
        "projection_matrix" : [
            [7.215377e+02, 0.000000e+00, 6.095593e+02, 4.485728e+01],
            [0.000000e+00, 7.215377e+02, 1.728540e+02, 2.163791e-01],
            [0.000000e+00, 0.000000e+00, 1.000000e+00, 2.745884e-03]
        ]
    }
    ,
    "right_image" : {
        "kind":"rgb_camera",
        "size" : {
            "width_pix" : 1242,
            "height_pix" : 375
        }
        ,
        "focal_length" : {
            "fx_pix" : 9.037596e+02,
            "fy_pix" : 9.019653e+02
        }
        ,
        "optical_center" : {
            "cx_pix" : 6.957519e+02,
            "cy_pix" : 2.242509e+02
        }
        ,
        "field_of_view" : {
            "fovx_deg" : 90
        }
        ,
        "seonsor_position" : {
            "x_m" : -0.54,
            "y_m" : 1.65,
            "z_m" : 0.27
        }
        ,
        "projection_matrix" : [
            [7.215377e+02, 0.000000e+00, 6.095593e+02, -3.395242e+02],
            [0.000000e+00, 7.215377e+02, 1.728540e+02, 2.199936e+00],
            [0.000000e+00, 0.000000e+00, 1.000000e+00, 2.729905e-03]
        ]
    }
    ,

    "depth" : {
        "kind":"lidar",
        "seonsor_position" : {
            "x_m" : 0.0,
            "y_m" : 1.73,
            "z_m" : 0.0
        }
        ,
        "coordinate_system":{
            "xyz_from" : "yzx",
            "x" : 1,
            "y" : 2,
            "z" : 0
        }
    }
}
@endjson

PlantUML version 1.2022.7beta2(Unknown compile time)
(GPL source distribution)
Java Runtime: Java(TM) SE Runtime Environment
JVM: Java HotSpot(TM) 64-Bit Server VM
Default Encoding: UTF-8
Language: en
Country: US
--></g></svg>